<svg xmlns="http://www.w3.org/2000/svg" width="108.983" height="115.51" viewBox="0 0 108.983 115.51"><defs><style>.a{fill:#d6b3f5;}.b{stroke:#000;stroke-width:1.3px;}</style></defs><g transform="translate(0.65)"><circle class="a" cx="18.5" cy="18.5" r="18.5" transform="translate(35.842)"/><g transform="translate(-0.015 7.17)"><g transform="translate(28.73 48.464)"><path class="b" d="M170.648,230.43h-30.51a3.593,3.593,0,0,0-3.59,3.59V260.94a3.593,3.593,0,0,0,3.59,3.59h30.51a3.593,3.593,0,0,0,3.59-3.59V234.02A3.593,3.593,0,0,0,170.648,230.43Zm-30.51,30.51V234.02h30.51l0,26.921Z" transform="translate(-136.548 -230.43)"/></g><g transform="translate(0.015 0)"><g transform="translate(0)"><path class="b" d="M107.7,35.9V28.722a1.8,1.8,0,0,0-1.795-1.795h-1.795V21.543a5.39,5.39,0,0,0-5.384-5.384H76.043a23.313,23.313,0,0,0-44.372,0H8.989A5.39,5.39,0,0,0,3.6,21.543v5.384H1.81A1.8,1.8,0,0,0,.015,28.722V35.9A1.8,1.8,0,0,0,1.81,37.7H7.194v3.59H5.4A5.39,5.39,0,0,0,.015,46.669V87.948A5.39,5.39,0,0,0,5.4,93.332H7.194v3.59H3.6a3.593,3.593,0,0,0-3.59,3.59V105.9A1.8,1.8,0,0,0,1.81,107.69H105.9A1.8,1.8,0,0,0,107.7,105.9v-5.384a3.577,3.577,0,0,0-1.795-3.09V37.7A1.8,1.8,0,0,0,107.7,35.9ZM7.194,21.543a1.8,1.8,0,0,1,1.795-1.795H33c.045,0,.083-.022.127-.026a1.72,1.72,0,0,0,.376-.076,1.754,1.754,0,0,0,1.022-.8,1.725,1.725,0,0,0,.156-.323c.015-.044.047-.076.058-.121a19.744,19.744,0,0,1,38.232,0c.013.051.045.09.062.139a1.964,1.964,0,0,0,.493.742,1.777,1.777,0,0,0,.352.237,1.747,1.747,0,0,0,.189.1,1.765,1.765,0,0,0,.642.13H98.725a1.8,1.8,0,0,1,1.795,1.795v5.384H7.194ZM3.6,46.669A1.8,1.8,0,0,1,5.4,44.875h7.179c.054,0,.1.026.154.031L3.6,50.61Zm8.973-5.384H10.783V37.7H21.552V96.921H10.783v-3.59h1.795a5.39,5.39,0,0,0,5.384-5.384V46.669A5.39,5.39,0,0,0,12.578,41.285ZM3.6,54.843l10.768-6.73v4.741L3.6,59.583Zm0,8.973,10.768-6.73v4.741L3.6,68.557Zm0,8.974,10.768-6.73V70.8L3.6,77.531Zm0,8.974,10.768-6.73v4.741L3.6,86.5ZM5.4,89.743c-.054,0-.1-.027-.154-.031l9.127-5.7v3.941a1.8,1.8,0,0,1-1.795,1.795Zm98.71,14.358H3.6v-3.59h100.5v3.59ZM95.135,48.464H75.393a3.593,3.593,0,0,0-3.59,3.59V96.921H25.141V37.7h77.173V96.921h-3.59V52.053A3.593,3.593,0,0,0,95.135,48.464ZM75.393,68.206V52.053H95.135V68.206ZM95.135,71.8V96.921H75.393V71.8Zm8.973-37.689H3.6v-3.59h100.5v3.59Z" transform="translate(-0.015 0)"/></g></g><g transform="translate(35.91 55.654)"><path class="b" d="M177.314,265.133a1.8,1.8,0,0,0-2.515,0l-3.59,3.589a1.794,1.794,0,1,0,2.538,2.538l3.59-3.59A1.794,1.794,0,0,0,177.314,265.133Z" transform="translate(-170.684 -264.619)"/></g><g transform="translate(35.898 55.654)"><path class="b" d="M186.245,265.133a1.8,1.8,0,0,0-2.515,0L171.167,277.7a1.794,1.794,0,1,0,2.515,2.56l.023-.023,12.563-12.563A1.8,1.8,0,0,0,186.245,265.133Z" transform="translate(-170.63 -264.619)"/></g><g transform="translate(78.983 75.385)"><path class="b" d="M377.277,358.43a1.8,1.8,0,0,0-1.795,1.795v5.384a1.795,1.795,0,1,0,3.589,0v-5.384A1.8,1.8,0,0,0,377.277,358.43Z" transform="translate(-375.482 -358.43)"/></g><g transform="translate(43.088 10.774)"><path class="b" d="M226.18,52.6a1.794,1.794,0,0,0-3.486.85h0a2.474,2.474,0,0,1-.888,2.513,2.932,2.932,0,0,1-3.95-.245,2.5,2.5,0,0,1-.541-1.027,1.692,1.692,0,0,0-.1-.2,1.744,1.744,0,0,0-.164-.331,2.445,2.445,0,0,0-.476-.477,1.733,1.733,0,0,0-.339-.168,1.7,1.7,0,0,0-.191-.1c-.035-.009-.069,0-.1-.007a2.8,2.8,0,0,0-.719,0c-.036.007-.07,0-.106.007a1.7,1.7,0,0,0-.194.1,1.745,1.745,0,0,0-.335.166,2.438,2.438,0,0,0-.477.477,1.747,1.747,0,0,0-.165.332,1.674,1.674,0,0,0-.1.2,2.483,2.483,0,0,1-.542,1.028,2.934,2.934,0,0,1-3.948.245,2.474,2.474,0,0,1-.888-2.513,1.794,1.794,0,1,0-3.486-.852,6.033,6.033,0,0,0,2.109,6.15,6.526,6.526,0,0,0,4.123,1.451,6.382,6.382,0,0,0,4.365-1.73,6.389,6.389,0,0,0,4.365,1.73,6.529,6.529,0,0,0,4.123-1.451A6.032,6.032,0,0,0,226.18,52.6Z" transform="translate(-204.814 -51.227)"/></g></g></g></svg>