<svg xmlns="http://www.w3.org/2000/svg" xmlns:xlink="http://www.w3.org/1999/xlink" width="139" height="139" viewBox="0 0 139 139"><defs><style>.a{fill:#fff;stroke:#707070;}.b{fill:#d6b2f5;}.c{clip-path:url(#a);}</style><clipPath id="a"><circle class="a" cx="69.5" cy="69.5" r="69.5" transform="translate(-0.378 -0.378)"/></clipPath></defs><circle class="b" cx="17" cy="17" r="17" transform="translate(9 49)"/><circle class="b" cx="17" cy="17" r="17" transform="translate(33 18)"/><circle class="b" cx="17" cy="17" r="17" transform="translate(56 52)"/><circle class="b" cx="17" cy="17" r="17" transform="translate(73 19)"/><circle class="b" cx="17" cy="17" r="17" transform="translate(100 49)"/><g transform="translate(5.58 -44.247)"><g transform="translate(0 93.263)"><path d="M119.031,203.826l-5.733-1.06a.9.9,0,0,1-.735-.884v-.332a12.833,12.833,0,0,0,5.96-10.829v-4.286a12.834,12.834,0,1,0-25.667,0v4.286a12.833,12.833,0,0,0,5.958,10.828v.334a.9.9,0,0,1-.735.884l-5.731,1.06a11.967,11.967,0,0,0-7.292,4.443,11.966,11.966,0,0,0-7.293-4.443l-5.733-1.06a.9.9,0,0,1-.735-.884v-.332a12.833,12.833,0,0,0,5.96-10.829v-4.286a12.834,12.834,0,1,0-25.667,0v4.286a12.833,12.833,0,0,0,5.958,10.828v.334a.9.9,0,0,1-.735.884l-5.731,1.06a11.967,11.967,0,0,0-7.292,4.443,11.966,11.966,0,0,0-7.293-4.443l-5.733-1.06a.9.9,0,0,1-.735-.884v-.332a12.833,12.833,0,0,0,5.96-10.829v-4.286a12.834,12.834,0,1,0-25.667,0v4.286a12.833,12.833,0,0,0,5.958,10.828v.334a.9.9,0,0,1-.735.884l-5.731,1.06A11.989,11.989,0,0,0,0,215.615v23.954a2.517,2.517,0,0,0,2.516,2.516H126.323a2.517,2.517,0,0,0,2.516-2.516V215.615A11.989,11.989,0,0,0,119.031,203.826Zm-95.88-25.192a7.815,7.815,0,0,1,7.52,5.723l-2.83-1.662a2.516,2.516,0,0,0-3.2.553,8.8,8.8,0,0,1-6.759,3.155H15.35A7.81,7.81,0,0,1,23.151,178.634Zm-7.767,12.8h2.494a13.814,13.814,0,0,0,9.1-3.409l3.971,2.333v.363a7.8,7.8,0,0,1-15.568.714ZM25.43,204.109l-2.278,2.2-2.282-2.2a5.861,5.861,0,0,0,.241-.716,12.78,12.78,0,0,0,4.076,0A5.891,5.891,0,0,0,25.43,204.109Zm15.839,32.943H37.231V219.708a2.516,2.516,0,0,0-5.033,0v17.344H14.1V219.708a2.516,2.516,0,0,0-5.033,0v17.344H5.033V215.615a6.956,6.956,0,0,1,5.691-6.84l5.731-1.06a5.939,5.939,0,0,0,.716-.185l3.465,3.347v7.648a2.516,2.516,0,0,0,5.033,0v-7.648l3.462-3.346a5.926,5.926,0,0,0,.714.184l5.733,1.06a6.956,6.956,0,0,1,5.691,6.84ZM64.42,178.634a7.815,7.815,0,0,1,7.52,5.723l-2.83-1.662a2.516,2.516,0,0,0-3.2.553,8.8,8.8,0,0,1-6.759,3.155H56.619A7.81,7.81,0,0,1,64.42,178.634Zm-7.767,12.8h2.494a13.814,13.814,0,0,0,9.1-3.409l3.971,2.333v.363a7.8,7.8,0,0,1-15.568.714ZM66.7,204.109l-2.278,2.2-2.282-2.2a5.86,5.86,0,0,0,.241-.716,12.78,12.78,0,0,0,4.076,0A5.892,5.892,0,0,0,66.7,204.109Zm15.839,32.943H78.5V219.708a2.516,2.516,0,0,0-5.033,0v17.344H55.373V219.708a2.516,2.516,0,0,0-5.033,0v17.344H46.3V215.615h0a6.956,6.956,0,0,1,5.691-6.84l5.731-1.06a5.939,5.939,0,0,0,.716-.185l3.464,3.346v7.649a2.516,2.516,0,0,0,5.033,0v-7.647l3.463-3.347a5.927,5.927,0,0,0,.714.184l5.733,1.06a6.956,6.956,0,0,1,5.691,6.84Zm23.151-58.418a7.815,7.815,0,0,1,7.52,5.723l-2.83-1.662a2.516,2.516,0,0,0-3.2.553,8.8,8.8,0,0,1-6.759,3.155H97.888A7.81,7.81,0,0,1,105.689,178.634Zm-7.767,12.8h2.494a13.814,13.814,0,0,0,9.1-3.409l3.971,2.333v.363a7.8,7.8,0,0,1-15.568.714Zm10.046,12.674-2.278,2.2-2.282-2.2a5.86,5.86,0,0,0,.241-.716,12.78,12.78,0,0,0,4.076,0A5.891,5.891,0,0,0,107.968,204.109Zm15.839,32.943h-4.038V219.708a2.516,2.516,0,0,0-5.033,0v17.344H96.642V219.708a2.516,2.516,0,0,0-5.033,0v17.344H87.571V215.615h0a6.956,6.956,0,0,1,5.691-6.84l5.731-1.06a5.939,5.939,0,0,0,.716-.185l4.087,3.948v7.047a2.516,2.516,0,0,0,5.033,0v-8.249l2.84-2.745a5.927,5.927,0,0,0,.714.184l5.733,1.06a6.956,6.956,0,0,1,5.691,6.84v21.437Z" transform="translate(0 -173.601)"/></g><g transform="translate(30.952 66.249)"><g transform="translate(0 0)"><path d="M135.834,66.249A12.848,12.848,0,0,0,123,79.083v4.286a12.834,12.834,0,0,0,25.667,0V79.083A12.848,12.848,0,0,0,135.834,66.249Zm0,5.033A7.815,7.815,0,0,1,143.353,77l-2.83-1.662a2.516,2.516,0,0,0-3.2.553,8.8,8.8,0,0,1-6.759,3.155h-2.528A7.81,7.81,0,0,1,135.834,71.282Zm7.8,12.087a7.8,7.8,0,0,1-15.568.714h2.494a13.814,13.814,0,0,0,9.1-3.409l3.971,2.333v.363Z" transform="translate(-123 -66.249)"/></g></g><g transform="translate(72.221 66.249)"><g transform="translate(0 0)"><path d="M299.834,66.249A12.848,12.848,0,0,0,287,79.083v4.286a12.834,12.834,0,1,0,25.667,0V79.083A12.848,12.848,0,0,0,299.834,66.249Zm0,5.033A7.815,7.815,0,0,1,307.353,77l-2.83-1.662a2.517,2.517,0,0,0-3.2.553,8.8,8.8,0,0,1-6.759,3.155h-2.528A7.81,7.81,0,0,1,299.834,71.282Zm7.8,12.087a7.8,7.8,0,0,1-15.568.714h2.494a13.814,13.814,0,0,0,9.1-3.409l3.971,2.333v.363Z" transform="translate(-287 -66.249)"/></g></g><g transform="translate(41.269 100.418)"><path d="M166.516,202.036A2.517,2.517,0,0,0,164,204.552v8.736a2.516,2.516,0,0,0,5.033,0v-8.736A2.517,2.517,0,0,0,166.516,202.036Z" transform="translate(-164 -202.036)"/></g><g transform="translate(41.269 117.194)"><path d="M168.3,269.438a2.515,2.515,0,1,0,.738,1.779A2.524,2.524,0,0,0,168.3,269.438Z" transform="translate(-164 -268.701)"/></g><g transform="translate(82.538 108.458)"><g transform="translate(0 0)"><path d="M330.516,233.983A2.517,2.517,0,0,0,328,236.5v8.736a2.516,2.516,0,1,0,5.033,0V236.5A2.516,2.516,0,0,0,330.516,233.983Z" transform="translate(-328 -233.983)"/></g></g><g transform="translate(82.538 100.42)"><path d="M332.3,202.776a2.515,2.515,0,1,0,.738,1.779A2.532,2.532,0,0,0,332.3,202.776Z" transform="translate(-328 -202.041)"/></g></g></svg>