<svg xmlns="http://www.w3.org/2000/svg" xmlns:xlink="http://www.w3.org/1999/xlink" width="364.98" height="505.589" viewBox="0 0 364.98 505.589"><defs><style>.a,.ac,.ah,.al,.j{fill:none;}.b{fill:#7a49c9;}.c{fill:#8b22e2;}.d{fill:#630fbe;}.e{fill:#621abe;}.f{fill:#6122be;}.g,.l,.p{fill:#fff;}.h{fill:#ddd6ff;opacity:0.43;}.i{opacity:0.15;}.j{stroke:#0964af;stroke-linecap:round;stroke-linejoin:round;stroke-width:6.975px;}.k{fill:#837fe5;}.l{font-size:8px;font-family:Montserrat-SemiBold, Montserrat;font-weight:600;}.m{fill:#fa0;}.n{fill:#6884dd;}.o{fill:#ff4f5b;}.p{opacity:0.3;}.q{fill:#d38509;}.r,.s{fill:#eaaa7f;}.s{stroke:#ba7343;}.ac,.ah,.al,.s{stroke-miterlimit:10;}.t{fill:#75342c;}.u{fill:#ffc4c0;}.v{fill:#965c17;}.w{fill:#c98224;}.x{fill:#5c79bf;}.y{clip-path:url(#a);}.z{fill:#8883e5;}.aa{fill:#7d67ce;}.aa,.ac,.ad{opacity:0.25;}.ab{fill:#f6a388;}.ac{stroke:#000;}.ae{fill:#6479ad;}.af{fill:#664624;}.ag{fill:#e0856c;}.ah{stroke:#e0856c;stroke-width:1.617px;}.ai{fill:#934747;}.aj{clip-path:url(#b);}.ak{fill:#ea5c5c;}.al{stroke:#d1816b;stroke-width:0.537px;}.am{fill:#f2866d;}.an{fill:#ba7343;}</style><clipPath id="a"><path class="a" d="M1901.717,1604.252c.565.654-5.144,6.985-5.767,7.41-4.941,3.375-11.2,3.486-15.945-.341a10.293,10.293,0,0,1-3.148-4.116c-.177-.443-1.137-5.112-.384-5.107l-8.077.678-11.19,30.967c.94,45.072,0,79.356,0,79.356,7.8,6.2,13.322,6.6,36.374,8.733s28.4,3.427,35.821-3.792C1926.737,1707.281,1931.732,1653.578,1901.717,1604.252Z" transform="translate(-1857.206 -1602.098)"/></clipPath><clipPath id="b"><path class="a" d="M1875.679,1566.835a6.841,6.841,0,0,0-1.384,5.948,4.192,4.192,0,0,0,4.056,2.354c2.147.013,4.429-1.005,6.579-1.992A48.968,48.968,0,0,1,1875.679,1566.835Z" transform="translate(-1874.076 -1566.835)"/></clipPath></defs><path class="b" d="M1736.971,1374.771v406.8a33.8,33.8,0,0,1-33.8,33.8H1536.3a33.8,33.8,0,0,1-33.8-33.8v-406.8a33.806,33.806,0,0,1,33.8-33.8h166.868A33.807,33.807,0,0,1,1736.971,1374.771Z" transform="translate(-1496.556 -1340.97)"/><path class="c" d="M1736.971,1374.771v5.609H1502.5v-5.609a33.806,33.806,0,0,1,33.8-33.8h166.868A33.807,33.807,0,0,1,1736.971,1374.771Z" transform="translate(-1496.556 -1340.97)"/><path class="c" d="M1736.977,1919.929v5.621a33.8,33.8,0,0,1-33.814,33.792H1536.3a33.785,33.785,0,0,1-33.792-33.792v-5.621Z" transform="translate(-1496.558 -1484.946)"/><path class="c" d="M0,0H3.813A2.582,2.582,0,0,1,6.395,2.582V86.946a2.582,2.582,0,0,1-2.582,2.582H0a0,0,0,0,1,0,0V0A0,0,0,0,1,0,0Z" transform="translate(240.415 96.507)"/><path class="c" d="M2.4,0H5.944a0,0,0,0,1,0,0V43.546a0,0,0,0,1,0,0H2.4a2.4,2.4,0,0,1-2.4-2.4V2.4A2.4,2.4,0,0,1,2.4,0Z" transform="translate(0 94.984)"/><path class="c" d="M2.092,0h3.09a0,0,0,0,1,0,0V26.8a0,0,0,0,1,0,0H2.092A2.092,2.092,0,0,1,0,24.7V2.092A2.092,2.092,0,0,1,2.092,0Z" transform="translate(0.761 159.237)"/><path class="d" d="M1609.377,1364.986a6.68,6.68,0,1,1-6.68-6.68A6.68,6.68,0,0,1,1609.377,1364.986Z" transform="translate(-1519.812 -1345.281)"/><path class="d" d="M1630.925,1366.132a3.22,3.22,0,1,1-3.219-3.219A3.22,3.22,0,0,1,1630.925,1366.132Z" transform="translate(-1526.891 -1346.427)"/><rect class="e" width="61.664" height="7.987" rx="1.612" transform="translate(112.062 15.712)"/><circle class="f" cx="12.866" cy="12.866" r="12.866" transform="matrix(0.23, -0.973, 0.973, 0.23, 107.695, 465.019)"/><rect class="g" width="222.295" height="395.578" transform="translate(11.119 39.405)"/><g transform="translate(17.485 51.826)"><rect class="h" width="210.339" height="116.516"/><g transform="translate(70.44 29.963)"><g class="i"><line class="j" x1="19.852" transform="translate(112.294 44.877)"/><line class="j" x1="28.419" transform="translate(0 29.918)"/><line class="j" x1="91.412" transform="translate(40.734 29.918)"/><line class="j" x1="47.573"/><line class="j" x1="100.029" transform="translate(0 44.877)"/></g></g><path class="k" d="M1664.757,1547.8h-45.534a10.188,10.188,0,0,1-10.189-10.188h0a10.188,10.188,0,0,1,10.189-10.188h45.534a10.189,10.189,0,0,1,10.189,10.188h0A10.188,10.188,0,0,1,1664.757,1547.8Z" transform="translate(-1540.534 -1439.164)"/><text class="l" transform="translate(85.926 100.35)"><tspan x="0" y="0">BOOK</tspan></text><rect class="m" width="42.689" height="57.133" rx="4.542" transform="translate(12.607 21.875)"/></g><g transform="translate(17.485 179.617)"><rect class="h" width="210.339" height="116.516"/><g transform="translate(70.44 29.963)"><g class="i"><line class="j" x1="19.852" transform="translate(112.294 44.877)"/><line class="j" x1="28.419" transform="translate(0 29.918)"/><line class="j" x1="91.412" transform="translate(40.734 29.918)"/><line class="j" x1="47.573"/><line class="j" x1="100.029" transform="translate(0 44.877)"/></g></g><path class="k" d="M1664.757,1717.889h-45.534a10.188,10.188,0,0,1-10.189-10.188h0a10.188,10.188,0,0,1,10.189-10.188h45.534a10.189,10.189,0,0,1,10.189,10.188h0A10.189,10.189,0,0,1,1664.757,1717.889Z" transform="translate(-1540.534 -1609.253)"/><text class="l" transform="translate(85.926 100.35)"><tspan x="0" y="0">BOOK</tspan></text><rect class="n" width="42.689" height="57.133" rx="4.542" transform="translate(12.607 21.875)"/></g><g transform="translate(17.485 305.727)"><rect class="h" width="210.339" height="116.516"/><g transform="translate(70.44 29.963)"><g class="i"><line class="j" x1="19.852" transform="translate(112.294 44.877)"/><line class="j" x1="28.419" transform="translate(0 29.918)"/><line class="j" x1="91.412" transform="translate(40.734 29.918)"/><line class="j" x1="47.573"/><line class="j" x1="100.029" transform="translate(0 44.877)"/></g></g><path class="k" d="M1664.757,1885.74h-45.534a10.188,10.188,0,0,1-10.189-10.188h0a10.188,10.188,0,0,1,10.189-10.188h45.534a10.189,10.189,0,0,1,10.189,10.188h0A10.189,10.189,0,0,1,1664.757,1885.74Z" transform="translate(-1540.534 -1777.104)"/><text class="l" transform="translate(85.926 100.35)"><tspan x="0" y="0">BOOK</tspan></text><rect class="o" width="42.689" height="57.133" rx="4.542" transform="translate(12.607 21.875)"/></g><g transform="translate(12.084 39.336)"><path class="p" d="M1657.773,1393.325l-147.1,225.236V1493.1l65.162-99.776Z" transform="translate(-1510.672 -1393.325)"/><path class="p" d="M1719.714,1393.325l-209.042,320.082v-58.136l171.078-261.946Z" transform="translate(-1510.672 -1393.325)"/><path class="p" d="M1749.347,1567.65v58.136L1614.5,1832.255H1576.54Z" transform="translate(-1527.052 -1436.677)"/></g><g transform="translate(195.234 137.616)"><path class="q" d="M1843.23,1637.849a12.089,12.089,0,0,0-7.038,6.588,3.675,3.675,0,0,0-.361,1.444,4.31,4.31,0,0,0,.284,1.3q.449,1.364.9,2.727a7.949,7.949,0,0,0,1.326,2.73c.669.784,1.659,1.149,2.437.3a13.568,13.568,0,0,0,2.072-3.094,15.137,15.137,0,0,0,1.539-7.652,14.017,14.017,0,0,0-.642-3.4" transform="translate(-1774.683 -1552.414)"/><path class="r" d="M1812.082,1627.91c12.965-8.828,34.12-16.452,41.585-19.916l8.1,21.7c-12.184,5.662-40.192,17.408-51.2,17.343h0C1819.649,1644.631,1812.082,1627.91,1812.082,1627.91Z" transform="translate(-1768.401 -1544.99)"/><path class="r" d="M1782.693,1614.137a320.519,320.519,0,0,1-12.968-39.337l4.8-3.1a393.6,393.6,0,0,1,24.084,39.163s11.681,18.536,5.642,25.733h0c-1.472,1.023-2.764,1.549-3.787,1.394C1793.155,1636.88,1785.987,1622.012,1782.693,1614.137Z" transform="translate(-1758.244 -1535.964)"/><path class="r" d="M1885.41,1581.739c.618,3.557.956,7.821,0,11.27-1.13,4.077-.488,3.505-4.66,3.791-2.585.176-7.358,0-7.358,0s-1.949,4.161-2.084,4.607a2.4,2.4,0,0,0-.024,1.008c.553,4.21,3.172,7.874,6.175,10.875a19.206,19.206,0,0,0,5.633,4.146c3.505,1.557,7.53,1.417,11.31.778a46.406,46.406,0,0,0,9.105-2.515,12.464,12.464,0,0,0,3.742-2.053c2.418-2.107,3.141-5.51,3.727-8.663a4.942,4.942,0,0,0-.221-3.52c-.393-.629-1.741-1.123-2.414-1.434-2.379-1.1-4.443-1.046-6.856-2.068-6.958-2.948-6.241-11.05-4.132-17.011" transform="translate(-1783.49 -1538.265)"/><path class="m" d="M1871.3,1602.09a29.3,29.3,0,0,0-13.119,2.488,161.318,161.318,0,0,0-21.787,12.089s6.536.114,6.213,22.644a6.96,6.96,0,0,1-2.4,5.216c7.231-2.86,19.966-10.293,19.966-10.293" transform="translate(-1774.823 -1543.516)"/><path class="r" d="M1909.257,1560.078l-11.618-22.781c-13.952-.767-22.459,17.3-25.885,23.913-1.279,2.469-2.355,5.479-1.062,7.941,1.038,1.976,3.281,2.95,5.377,3.716C1882.068,1575.056,1905.345,1580.813,1909.257,1560.078Z" transform="translate(-1783.207 -1527.403)"/><path class="s" d="M1884.136,1553.873c-2.634,1.954-9.4,2.373-9.947,3.748s.267,2.928,2.98,4.068" transform="translate(-1784.182 -1531.531)"/><g transform="translate(94.14)"><path class="t" d="M1914.952,1534.809c-3.859-7.237-22.3-10.477-25.461-10.656s-6.563,1.111-8.191,3.83a4.975,4.975,0,0,0-.639,3.941,4.709,4.709,0,0,0,1.578,2.219,6.8,6.8,0,0,0-1.519,1.333,4.044,4.044,0,0,0-.943,3.041c.292,1.995,2.342,3.222,4.271,3.807a17.5,17.5,0,0,0,9.534.044c-1.014,2.648-.988,6.884,8.035,8.278a3.227,3.227,0,0,0,1,6.168l-2.017,7.286a7.281,7.281,0,0,0-.348,3.844,5.4,5.4,0,0,0,3.79,3.344c2.494.784,8.962-2.7,9.9-7.056C1913.948,1564.229,1922.523,1549.005,1914.952,1534.809Z" transform="translate(-1879.744 -1524.136)"/></g><path class="r" d="M1905.5,1568.883a2.349,2.349,0,0,1,2.687-.183,3.091,3.091,0,0,1,1.414,2.385,4.577,4.577,0,0,1-.719,2.739,5.478,5.478,0,0,1-4.659,2.659,4.544,4.544,0,0,1-4.207-3.134" transform="translate(-1790.645 -1535.135)"/><g transform="translate(69.945 137.563)"><g transform="translate(0 173.309)"><path class="u" d="M1868.813,1938.239s1.038,20.722,2.554,32.6c0,0-8.12,7.743-12.113,9.884,0,0,24.078,1.747,22.334-4.858s-1.757-23.779-.06-37.965" transform="translate(-1850.453 -1937.904)"/><path class="v" d="M1849.464,2000.732c-3.6,1.052.724,5.949,2.618,6.237a13.812,13.812,0,0,0,5.638-.777,105.082,105.082,0,0,1,21.607-3.543,2.378,2.378,0,0,0,1.281-.343,2.657,2.657,0,0,0,1.073-3.067,3.872,3.872,0,0,1-.676-2.19" transform="translate(-1847.672 -1952.612)"/><path class="w" d="M1881.3,1992.582c-.6-2.563-.126-11.347-3.525-10.307a6.052,6.052,0,0,1-8.965,1.437c-.426-.336-1.8-3.867-3.775-1.4-2.085,2.6-4.743,4.374-8.609,7.407-1.767,1.386-8.96,4.727-8.891,6.972.084,2.773,1.193,4.4,3.959,4.6s6.769-1.152,9.393-2.053c5.512-1.891,11.718-2.4,17.533-2.8a3.567,3.567,0,0,0,2.682-.948A3.463,3.463,0,0,0,1881.3,1992.582Z" transform="translate(-1847.54 -1948.731)"/><g transform="translate(19.086 32.364)"><path class="v" d="M1872.973,1981.539c1.764,4.136,11.545,5.8,12.346.224a.454.454,0,0,0-.752-.438c-1.885,1.821-4.028,2.82-6.687,2.123-1.723-.452-2.888-1.81-4.5-2.442-.334-.131-.518.281-.41.533Z" transform="translate(-1872.942 -1980.981)"/></g><g transform="translate(9.753 38.264)"><path class="v" d="M1860.665,1989.684a20.683,20.683,0,0,1,2.234,2.222,10.385,10.385,0,0,0,2.008,2.211.512.512,0,0,0,.765-.439c.005-2.279-2.617-4.128-4.527-4.82a.5.5,0,0,0-.481.825Z" transform="translate(-1860.521 -1988.833)"/></g><g transform="translate(12.087 36.535)"><path class="v" d="M1863.973,1987.508a6.222,6.222,0,0,1,2.361,1.68,20.429,20.429,0,0,0,1.857,1.938.486.486,0,0,0,.818-.339,4.01,4.01,0,0,0-1.616-2.842,8.672,8.672,0,0,0-3.158-1.389.494.494,0,0,0-.263.952Z" transform="translate(-1863.627 -1986.532)"/></g><g transform="translate(13.954 34.289)"><path class="v" d="M1866.5,1985.049a9.375,9.375,0,0,1,2.73,2.083,14.186,14.186,0,0,0,2.219,2.322.628.628,0,0,0,.939-.539c-.005-2.693-3.055-4.509-5.273-5.326-.848-.313-1.416,1.048-.615,1.46Z" transform="translate(-1866.113 -1983.543)"/></g></g><path class="x" d="M1888,1707.231c9.647,15.319,6.571,87.856-3.467,120.172,6.016,21.018-3.515,70.32-3.515,70.32a29.638,29.638,0,0,1-11.263.3c-.355-1.348-10.124-71.088-9.029-84.4,1.426-17.327,1.489-72.984,15.657-90.792" transform="translate(-1850.797 -1707.231)"/></g><g transform="translate(112.113 140.219)"><g transform="translate(2.462 173.183)"><path class="u" d="M1925.674,1942.966s3.254,20.492,6.035,32.144c0,0-7.242,8.569-10.984,11.125,0,0,24.127-.844,21.685-7.224s-4.3-23.453-4.129-37.739" transform="translate(-1910.369 -1941.271)"/><path class="v" d="M1908.835,2004.5c-3.643.911.491,5.973,2.373,6.334a13.819,13.819,0,0,0,5.664-.557,105.045,105.045,0,0,1,21.729-2.7,2.379,2.379,0,0,0,1.293-.294,2.655,2.655,0,0,0,1.192-3.022,3.871,3.871,0,0,1-.59-2.215" transform="translate(-1907.051 -1956.384)"/><path class="w" d="M1940.841,1997.409c-.5-2.584.315-11.342-3.122-10.436a6.051,6.051,0,0,1-9.014,1.086c-.413-.351-1.648-3.933-3.717-1.548-2.184,2.517-4.91,4.186-8.891,7.067-1.82,1.316-9.138,4.373-9.156,6.62-.024,2.774,1.02,4.439,3.778,4.754s6.808-.888,9.465-1.686c5.581-1.676,11.8-1.941,17.628-2.115a3.566,3.566,0,0,0,2.717-.843A3.462,3.462,0,0,0,1940.841,1997.409Z" transform="translate(-1906.942 -1952.319)"/><g transform="translate(19.646 33.067)"><path class="v" d="M1933.114,1985.781c1.628,4.271,11.345,6.28,12.361.669a.454.454,0,0,0-.713-.427c-1.762,1.578-3.509,2.494-5.965,2.083-2.132-.356-3.338-1.979-5.2-2.793a.368.368,0,0,0-.484.468Z" transform="translate(-1933.09 -1985.283)"/></g><g transform="translate(10.12 38.6)"><path class="v" d="M1920.578,1993.527a19.282,19.282,0,0,1,2.127,2.308,10.026,10.026,0,0,0,1.842,2.206c.277.2.809.086.82-.323.062-2.292-2.349-4.241-4.282-5.028a.5.5,0,0,0-.508.837Z" transform="translate(-1920.411 -1992.647)"/></g><g transform="translate(12.483 36.972)"><path class="v" d="M1923.853,1991.415c1.859.647,2.8,2.622,4.177,3.847.348.309.775-.052.775-.433a4.06,4.06,0,0,0-1.474-2.807,8.386,8.386,0,0,0-3.079-1.511c-.6-.207-1,.695-.4.9Z" transform="translate(-1923.556 -1990.48)"/></g><g transform="translate(14.469 34.807)"><path class="v" d="M1926.639,1989.134a8.941,8.941,0,0,1,2.591,2.192,13.686,13.686,0,0,0,2.022,2.306.633.633,0,0,0,1.01-.564c.02-2.606-2.834-4.506-4.978-5.4a.8.8,0,0,0-.645,1.462Z" transform="translate(-1926.199 -1987.599)"/></g></g><path class="n" d="M1923.264,1710.766c11.233,14.2,17.486,57.118,7.724,120.067,8.234,20.253,3.371,65.739,3.371,65.739a23.414,23.414,0,0,1-11.319,2.386c-.5-1.3-16.862-65.922-17.2-79.272-.439-17.38-7.035-73.43,5.142-92.655" transform="translate(-1903.665 -1710.766)"/></g><path class="m" d="M1903.079,1604.239a13.105,13.105,0,0,1-.835,2.226,12.056,12.056,0,0,1-1.368,2.087,15.585,15.585,0,0,1-9.035,5.4,12.873,12.873,0,0,1-10.473-2.642,10.294,10.294,0,0,1-3.148-4.116c-.177-.443-1.137-5.112-.384-5.108l-6.572-.041s-6.8,24.522-7.516,33.025c-3.757,44.328,3.629,84.779,3.629,84.779,7.8,6.2,4.514-.159,27.565,1.971s21.048,3.89,28.467-3.33c-2.312-9.337,8.5-51.483-10.168-94.578-2.117-4.888,9.582-7.253,6.855-12.132C1919.163,1610.108,1906.9,1605.354,1903.079,1604.239Z" transform="translate(-1781.361 -1543.51)"/><g transform="translate(77.207 58.574)"><g class="y"><g transform="translate(49.111 15.283)"><path class="z" d="M1943.376,1680.035c-1.9-14.178-11.45-25.955-20.8-36.713a46.368,46.368,0,0,1,24.481,33.952" transform="translate(-1922.573 -1627.632)"/><path class="z" d="M1925.374,1640.9c-.536-.377-.2-.872-.44-1.488-1.326-3.454-3.252-7.474-1.892-10.909a12.031,12.031,0,0,1,2.052-3.207,8.96,8.96,0,0,1,2.373-2.156,6.992,6.992,0,0,1,6.328.124,20.915,20.915,0,0,1,5.214,4.007,25.9,25.9,0,0,0-10.657-.48,11.588,11.588,0,0,1,5.607,2.658c-2.627.713-5.665-1.261-8.028.1l3.413,1.546c-1.575-.017-2.745,1.437-3.512,2.826-.978,1.774-.053,3.486-.534,5.459" transform="translate(-1922.574 -1622.439)"/><path class="z" d="M1924.793,1642.585a10.36,10.36,0,0,1,9.035-7.288,13.742,13.742,0,0,1,11.015,4.586,21.182,21.182,0,0,1,5.056,11.162,5.218,5.218,0,0,1-2.305-2.066c-2.86-3.743-6.681-7.029-11.275-7.92a23.24,23.24,0,0,1,2.432,6.479,19.481,19.481,0,0,0-5.943-6.292l2.348,4.983c-2.667-2.863-5.677-2.678-9.564-2.622" transform="translate(-1923.125 -1625.625)"/></g></g></g><path class="aa" d="M1936.417,1677.65c2.812,3.9,2.868,7.461,5.478,11.078-.665-3.878-.745-7.463-1.748-11.607-.01-.015-1.326-2.023-2.958-4.075-1.236.662-2.8.429-4.65.47-2.935-9.427-4.089-10.675-9.589-18.875-.467-.7-.942-1.392-1.4-2.1,4.612,9.847,6.938,18.247,9.219,26.717A20.361,20.361,0,0,0,1936.417,1677.65Z" transform="translate(-1796.001 -1556.068)"/><path class="ab" d="M1942.692,1761.641l-8.666,8.173a.956.956,0,0,0-.374.6.944.944,0,0,0,.193.513q2.99,4.8,6.345,9.368a.783.783,0,0,0,.506.388c.247.021.447-.189.6-.383a53.064,53.064,0,0,0,4.422-6.81,9.14,9.14,0,0,0,.779-1.571,8.438,8.438,0,0,0,.346-2.533,58.368,58.368,0,0,0-.354-8.2" transform="translate(-1799.009 -1583.086)"/><path class="ac" d="M1929.408,1766.36q5.575,9.847,11.754,19.339" transform="translate(-1797.954 -1584.373)"/><path class="ad" d="M1900.847,1817.12c-.014-.508-.033-.91-.021-1.123,1.056-18.352,1.261-30.9,1.261-30.9s-6.211,25.522-5.4,32.56a151.812,151.812,0,0,1,.593,15.313C1898.5,1828.03,1899.705,1822.688,1900.847,1817.12Z" transform="translate(-1789.798 -1589.033)"/><path class="ae" d="M1928.737,1960.9c4.581-.037,8.686-.041,12.534-2.527a15.519,15.519,0,0,0-.053-4.8c-1.744.567-9.035,3.2-13.406,2.976A17.667,17.667,0,0,0,1928.737,1960.9Z" transform="translate(-1797.557 -1630.929)"/><path class="ae" d="M1871.88,1962.631c4.262.654,8.79.956,12.762-.917q-.014-2.22-.029-4.439l-5.132.892a19.428,19.428,0,0,1-7.79.16A13.247,13.247,0,0,0,1871.88,1962.631Z" transform="translate(-1783.573 -1631.849)"/><g transform="translate(122.629 66.106)"><path class="af" d="M1933.2,1667.077q9.005,13.371,18.891,26.122c.68.877,2.1,1.75,2.7.811a1.63,1.63,0,0,0,.166-.946,23.4,23.4,0,0,0-1.766-7.078,289.286,289.286,0,0,0-13.921-31.755" transform="translate(-1921.525 -1622.594)"/><path class="r" d="M1940.647,1733.7c2.563-18.239,8.442-44.905,8.442-44.905s-10.936-24.952-18.2-34.838l15.357-19.211c7.964,13.563,21.817,46.2,21.819,51.722s-12.23,34.894-22.346,50.168" transform="translate(-1920.952 -1617.748)"/><path class="ag" d="M1938.636,1669.792c1.568,2.851,3.138,5.891,4.609,8.841a14.144,14.144,0,0,0,4.57-2.727,34.81,34.81,0,0,0,6.893-6.544,11.751,11.751,0,0,0,2.412-8.948,51.907,51.907,0,0,0-18.454,7.98Z" transform="translate(-1922.878 -1624.132)"/><path class="q" d="M1921.748,1613.533c2.555-1.8,10.263-2.719,15.263,2.551,4.494,4.737,12.189,24.246,16.346,32.636-2,4.743-2.952,5.471-5.942,8.267a25.861,25.861,0,0,1-15.835,6.694c-2.525-7.66-9.229-15.49-10.994-21.192C1918.132,1634.566,1914.96,1618.3,1921.748,1613.533Z" transform="translate(-1917.662 -1612.123)"/></g><path class="ah" d="M1908.227,1571.751c.046-.387-.348-.711-.736-.741a2.194,2.194,0,0,0-1.106.323.727.727,0,0,0-.377.315.753.753,0,0,0-.027.345,2.407,2.407,0,0,1-.237,1.472,2.5,2.5,0,0,1-.784.7,2.116,2.116,0,0,1-1.228.458c-.444-.026-.889-.439-.776-.87" transform="translate(-1791.372 -1535.792)"/><path class="ag" d="M1905.634,1578.574c-1.388.1-3.788.112-4.358-1.377a2.817,2.817,0,0,0,.542,1.858,4.311,4.311,0,0,0,1.236.811,2.679,2.679,0,0,0,2.422.134" transform="translate(-1790.958 -1537.331)"/><path class="ag" d="M1890.814,1587.451c2.389.083,8.944-.312,9.231-.19a7.335,7.335,0,0,1-3.027,1.292c-1.781.459-4.3.754-6.168,1.059" transform="translate(-1788.357 -1539.828)"/><g transform="translate(89.882 32.08)"><path class="ai" d="M1875.679,1566.835a6.841,6.841,0,0,0-1.384,5.948,4.192,4.192,0,0,0,4.056,2.354c2.147.013,4.429-1.005,6.579-1.992A48.968,48.968,0,0,1,1875.679,1566.835Z" transform="translate(-1874.076 -1566.835)"/><g class="aj"><path class="ak" d="M1883.116,1578.065a3.26,3.26,0,0,0-1.359-2.93,9.131,9.131,0,0,0-3.3-1.427,6.427,6.427,0,0,0-2.294-.271,3.672,3.672,0,0,0-2.311,1.075,3.159,3.159,0,0,0-.683,1.346,4.2,4.2,0,0,0,1.994,4.922,7.6,7.6,0,0,0,6.624-.291" transform="translate(-1873.808 -1568.472)"/></g></g><path class="ab" d="M1777.594,1566.348" transform="translate(-1760.201 -1534.633)"/><path class="r" d="M1758.115,1549.49a31.974,31.974,0,0,0-2.859-3.9c-1.278-1.748-.841-2.791-.1-3.06s3.425,2.632,5.241,4.111c1.635,1.332,4.356,5.534,4.885,6.362a6.153,6.153,0,0,1,3.617-1.089c1.412.269,4.07,5.011,4.44,7.7.286,2.08-.855,7.634-.855,7.634l1.439,4.877s-4.413,6.872-5.89,2.231-3.048-5.917-5.3-6.418c-1.816-.4-7.289-5.028-7.491-7.559a3.375,3.375,0,0,1,1.041-2.091c0-.012-.006-.028-.006-.041a2.18,2.18,0,0,1,1.988-2.159,2.246,2.246,0,0,1,2.02-1.893C1760.43,1553.225,1758.624,1550.571,1758.115,1549.49Z" transform="translate(-1754.444 -1528.706)"/><path class="al" d="M1768.148,1556.409a8.12,8.12,0,0,0-2.662,2.391,1.407,1.407,0,0,0,.455,1.158c.551.513,3.418-.4,3.8-.189a3.794,3.794,0,0,0,1.163,2.924" transform="translate(-1757.188 -1532.162)"/><path class="al" d="M1759.717,1561.2a6.93,6.93,0,0,0,2.59,3.2s3.839.873,4.929.672a1.1,1.1,0,0,0,.821-1.613,2.418,2.418,0,0,0-1.883-1.547" transform="translate(-1755.755 -1533.352)"/><path class="al" d="M1757.026,1563.822a6.943,6.943,0,0,0,2.59,3.2s2.929.785,4.342.415" transform="translate(-1755.086 -1534.005)"/><path class="al" d="M1758.956,1570.989a6.691,6.691,0,0,0,3.128.158" transform="translate(-1755.566 -1535.787)"/><circle class="am" cx="2.514" cy="2.514" r="2.514" transform="translate(101.362 30.665)"/><circle class="an" cx="0.886" cy="0.886" r="0.886" transform="translate(105.391 24.287)"/><circle class="an" cx="0.886" cy="0.886" r="0.886" transform="translate(97.041 20.353)"/></g></svg>