<svg xmlns="http://www.w3.org/2000/svg" xmlns:xlink="http://www.w3.org/1999/xlink" viewBox="0 0 956.67 884.81"><defs><style>
	.cls-1{fill:#dec0f9;}.cls-1,.cls-3{opacity:0.4;}.cls-2,.cls-35,.cls-38,.cls-39,.cls-45,.cls-46,.cls-47,.cls-49,.cls-54,.cls-7{fill:none;}.cls-2,.cls-39{stroke:#ebcbf7;}.cls-2,.cls-35,.cls-38,.cls-39,.cls-40,.cls-45,.cls-46,.cls-47,.cls-49,.cls-54,.cls-7{stroke-miterlimit:10;}.cls-2{clip-path:url(#clip-path);}.cls-18,.cls-21,.cls-3,.cls-4,.cls-48{fill:#8b22e2;}.cls-4{opacity:0.33;}.cls-5{fill:#ffbca0;}.cls-6{fill:#f2866d;}.cls-7{stroke:#ba7343;stroke-width:0.75px;}.cls-8{fill:#ba7343;}.cls-9{fill:#8c4d37;}.cls-10{opacity:0.1;}.cls-10,.cls-24,.cls-27{isolation:isolate;}.cls-11{fill:#6139bd;}.cls-12{fill:#c98409;}.cls-13{fill:#fa0;}.cls-14{fill:#6884dd;}.cls-15,.cls-16,.cls-19{opacity:0.15;}.cls-17{fill:#050505;}.cls-19,.cls-32,.cls-34,.cls-36,.cls-37,.cls-40,.cls-53{fill:#fff;}.cls-20{fill:#f0f2f8;opacity:0.39;}.cls-21{opacity:0.8;}.cls-22{fill:#b281e4;}.cls-23{fill:#d9cce6;}.cls-24,.cls-27{opacity:1;}.cls-25{fill:#c3b7ce;}.cls-26,.cls-27{fill:#d5c4e3;}.cls-28{fill:#ae6fe2;}.cls-29{clip-path:url(#clip-path-2);}.cls-30,.cls-33{fill:#9c9ce2;}.cls-30{opacity:0.51;}.cls-31{fill:#d7d4ff;}.cls-32{opacity:0.43;}.cls-34,.cls-35{opacity:0.6;}.cls-35{stroke:#fff;}.cls-36{opacity:0.81;}.cls-37{opacity:0.22;}.cls-38,.cls-45,.cls-46,.cls-49{stroke:#f1f2f2;}.cls-38{opacity:0.54;}.cls-40{stroke:#b388e5;stroke-width:2px;}.cls-41{fill:#b388e5;}.cls-42{fill:#570d9e;}.cls-43{fill:#a67ce8;}.cls-44{opacity:0.47;}.cls-45{opacity:0.44;}.cls-46{opacity:0.49;}.cls-47{stroke:#8b22e2;}.cls-48{opacity:0.53;}.cls-49{opacity:0.5;}.cls-50{fill:#d3acf9;}.cls-51{fill:#e6a16c;}.cls-52,.cls-57{fill:#020202;}.cls-52,.cls-55{opacity:0.17;}.cls-54{stroke:#020202;stroke-linecap:round;stroke-width:3px;}.cls-56{fill:#101521;}.cls-58{fill:#3ead6b;}.cls-59{fill:#f2f4f3;opacity:0.14;}.cls-60{fill:#f84260;}




#finger{
  animation: finger 1s forwards;
  transform-box:fill-box;
  transform-origin:left;
}
@keyframes finger{
  0%{
   	transform: rotate(-15deg);
   }
50%{
   transform: rotate(20deg);
   }
100%{
    transform: rotate(0deg);
   }
}


#calendar{

    animation: rightmark 1s ease-in-out 0s forwards;
    animation-delay: 1s;
    transform-box:fill-box;
    transform-origin:left;
    opacity: 0;
}

@keyframes rightmark{

0% {
   transform:scale(0,0);
}
50% {
   transform:scale(1,1);
}
100% {
    transform:scale(1,1);
    opacity: 1;
}
}


#redtag{
   animation: rightmark 1.5s ease-in-out forwards;
    animation-delay: 1.5s;
    transform-box:fill-box;
    transform-origin:left;
    opacity: 0;
}

@keyframes red{

 0%{
   
    transform:scale(0,0);
   
   }
50%{
  
   transform:scale(0,0);

 
   }
100%{
   
	transform:scale(1,1);
	 opacity: 1;
   }

}


#hand{
  animation: G_hand 0.5s  linear;
  animation-delay: 2.2s;
  transform-box:fill-box;
 transform-origin: right;

}
@keyframes G_hand{
  0%{
   	transform: rotate(0deg);
   }
50%{
   transform: rotate(10deg);
   }
100%{
    transform: rotate(0deg);
   }
}

#greentag{
 animation: green 0.9s  ease-in-out 0s forwards;
 /*transform-origin: center;*/
  transform-origin: 591px 66%;
  animation-delay: 2.9s;
  opacity: 0;
 
}
@keyframes green{
  0%{
   transform: scale(0,0);
    opacity: 0.5;
  }
  100%{
   transform: scale(1,1);
   opacity: 1;
  }
}



#womanhead{
    animation: w-head 2s infinite linear;
    transform-box: fill-box;
    transform-origin: bottom;
}
@keyframes w-head{
  0%{
   	transform: rotate(0deg);
   }
50%{
   transform: rotate(3deg);
   }
100%{
    transform: rotate(0deg);
   }
}



#smallleafes{
	animation: wiggle 10s ease infinite;
    animation-direction: alternate;
    transform-box:fill-box;
     transform-origin:left;
}

  @keyframes wiggle{
0%{
   	transform: rotate(0deg);
   }
50%{
   transform: rotate(10deg);
   }
100%{
    transform: rotate(0deg);
   }
}
 #lightleaf{
  animation: leaf 5s infinite linear;
  transform-box:fill-box;
  transform-origin:right;
 }
  #darkleaf{
  animation: leaf 10s infinite linear;
  transform-box:fill-box;
  transform-origin:right;
  }  
  @keyframes leaf{
0%{
   	transform: rotate(0deg);
   }
50%{
   transform: rotate(10deg);
   }
100%{
    transform: rotate(0deg);
   }
}
#leg1{
  animation: leg 1.2s infinite linear;
  transform-box:fill-box;
  transform-origin:right;
}
@keyframes leg{
  0%{
   	transform: rotate(0deg);
   }
50%{
   transform: rotate(10deg);
   }
100%{
    transform: rotate(0deg);
   }
}
#thinline-2{
animation: clock 30s infinite linear;
transform-box:fill-box;
transform-origin: bottom;
}
#thinline{
animation: clock 30s infinite linear;
transform-box:fill-box;
transform-origin: bottom;
}
@keyframes clock{
  
to{
    transform:rotate(360deg);
  }
}


#leaf3{
  animation: leaf 13s infinite linear;
  transform-box:fill-box;
 transform-origin: bottom;
}
#leaf2{
  animation: leaf 7s infinite linear;
  transform-box:fill-box;
 transform-origin: bottom;
}

#leaf1{
  animation: leaf 10s infinite linear;
  transform-box:fill-box;
 transform-origin: bottom;
}

@keyframes leaf{

 0%{
   	transform: skewX(-10deg);
   }
50%{
   transform: skewX(0deg);
   }
100%{
    transform: skewX(-10deg);
   }

}
#manhead{
animation: head 2s infinite linear;
transform-box:fill-box;
transform-origin: center;
}
@keyframes head{
  0%{
   	transform: rotate(0deg);
   }
50%{
   transform: rotate(10deg);
   }
100%{
    transform: rotate(0deg);
   }
}

#greentickmar{
	animation: grow 1s forwards;
    animation-iteration-count: infinite;
    transform-box:fill-box;
    transform-origin: center;
}
@keyframes grow{
  0%{
   	transform: scale(.9);
   }
50%{
   transform: scale(1.10);
    
   }
100%{
    transform: scale(.9);

   }
}


@media only screen and (max-width:767px){
#leaf2{ 
  animation: none;
 }
}



</style>
<clipPath id="clip-path"><circle class="cls-1" cx="447.96" cy="221.82" r="221.5"/></clipPath><clipPath id="clip-path-2" transform="translate(0 31.74)"><circle class="cls-2" cx="446.96" cy="222" r="221.5"/></clipPath></defs><g id="Layer_2" data-name="Layer 2"><g id="Layer_1-2" data-name="Layer 1"><g id="woman-computer"><path class="cls-3" d="M679.42,653.51V677l211.06,3.44c-3.42-80.15,24.77-197.68,24.77-197.68,11.12-36.47-7.2-40.15-12.86-40.42a11,11,0,0,0-1.59,0C876.06,440,854.08,448,854.08,448c-34.33,15.67-3.48,89.73-3.48,89.73,26.15,54.26-19.94,104-19.94,104-28,34.33-93.49,10.52-93.49,10.52Z" transform="translate(0 31.74)"/><path class="cls-4" d="M679.42,664.58V677l211.06,3.44c-3.42-80.15,24.77-197.68,24.77-197.68,11.12-36.47-7.2-40.15-12.86-40.42,2.78,1.51,4.94,3.38,6,5.64,0,0,11,11.3-2.73,31.35,0,0-22,116.56-21.31,139.14l-.69,46.09Z" transform="translate(0 31.74)"/><path class="cls-4" d="M889,680.46H870s-.69,70.31,9.46,85.91c0,0,8.76,61.66,25.26,83.47H911l-15.12-60.58S884.61,700.76,889,680.46Z" transform="translate(0 31.74)"/><path class="cls-4" d="M848.56,679.85H829.65s-.69,70.91,9.45,86.65c0,0,8.77,62.18,25.27,84.18h6.19l-15.13-61.1S844.22,700.32,848.56,679.85Z" transform="translate(0 31.74)"/><path class="cls-4" d="M716.12,677.6H735s.69,71.84-9.45,87.79c0,0-8.77,63-25.27,85.29h-6.19l15.13-61.9S720.46,698.34,716.12,677.6Z" transform="translate(0 31.74)"/><path class="cls-4" d="M679.83,677h18.9s.69,72.09-9.45,88.08c0,0-8.77,63.22-25.27,85.58h-6.18L673,788.57S684.17,697.83,679.83,677Z" transform="translate(0 31.74)"/><g id="womanhead"><path class="cls-5" d="M800.23,379.69l6.28,3.66s-4.92,25.19,0,32.7l9.31,7.5L784.54,443h-20v-15l7.51-6.25V398.53Z" transform="translate(0 31.74)"/><g id="womanhead-2" data-name="womanhead"><ellipse class="cls-5" cx="778.32" cy="369.75" rx="36.91" ry="28.19" transform="matrix(0.23, -0.97, 0.97, 0.23, 240.29, 1074.57)"/><circle class="cls-6" cx="759.69" cy="409.5" r="2.95"/><circle class="cls-6" cx="778.19" cy="412.18" r="2.68"/><path class="cls-7" d="M768.33,375.34l-2.68,5.9a1.77,1.77,0,0,0,.54,1.88l1.87.8" transform="translate(0 31.74)"/><path id="gsmile" class="cls-7" d="M761.63,389.28a4.9,4.9,0,0,0,4.29,4.83c4.56,1.07,6.43-4.29,6.43-4.29" transform="translate(0 31.74)"/><circle class="cls-8" cx="763.77" cy="398.77" r="1.61"/><circle class="cls-8" cx="779" cy="401.46" r="1.61"/><path class="cls-9" d="M811.26,369.75s-28,10-41.11-28.78l-6.83,6a11.33,11.33,0,0,0-3.7,6.52,54.16,54.16,0,0,1-4.69,14.42,13.9,13.9,0,0,0-1.47,7.22c.7,9.89,4.24,30.52,18.57,30.62v15.95L770.46,443l-7.5-1.57-.94-19.7s-8.13-5-8.76-13.45c0,0-8.13-42.23-5-54.12,0,0,6.25-19.08,20.33-28.15,0,0,24.91-8.45,44.21-5,0,0,25.55,4.07,27.74,41.61,0,0-3.45,40.59,11.26,48.76,0,0,31.28,7.85,31.28,33.82,0,1.56-.32,18.45-8.45,25.65l-35.35-37.54-36.91-14.7S800.13,387,811.26,369.75Z" transform="translate(0 31.74)"/></g><ellipse class="cls-5" cx="806.51" cy="406.87" rx="6.28" ry="8.22"/><path class="cls-10" d="M772,419s25.54-18.18,25-17.9c-8.59,4.69-15.41,8.05-26.12,4.83C770.74,405.93,772,419,772,419Z" transform="translate(0 31.74)"/></g><g id="leg2"><path class="cls-5" d="M730.34,758.89s2.27,19.39,8.53,27.94l15.24,7.3s4.78,6.47-1.89,11.89c0,0-27.32,30.86-34,31.28,0,0-6.24,4.17,2.5-17.93,0,0,2-14-.84-22.73L712,765.77Z" transform="translate(0 31.74)"/><path class="cls-11" d="M753.05,792.47s-12,26.89-36.08,38.16l-7.14,7.88s-5,12.35,8.19,5.88c0,0,13.55-4.17,24.6-22.31,0,0,13.7-11.47,18.36-15.85C761,806.23,770.57,796.64,753.05,792.47Z" transform="translate(0 31.74)"/></g><g id="leg1"><path class="cls-5" d="M585.18,749.92s-10.43,17.94-10.85,28.78c0,0-24.82,10.43-47.76-3.34,0,0-2.71-1.24,23.15-7.92l7.3-4,10.64-19Z" transform="translate(0 31.74)"/><path class="cls-11" d="M577,777s8.76,10-2.29,14c0,0-11.89,1.25-21.48-1.88,0,0-20.44-2.3-29-1.46,0,0-16.89-1.88-19-6.47,0,0,0-4.79,9.39-6l12.72-2.3s1.59,6.88,28.42,8.14Z" transform="translate(0 31.74)"/></g><path class="cls-12" d="M703.84,630.22s12.09,27.53,16.68,49.63c0,0,13.35,53,15,87.17,0,0-10,10-27.52,6.26,0,0-41.71-103.85-46.72-105.94Z" transform="translate(0 31.74)"/><path class="cls-13" d="M864,610.62a19,19,0,0,1,6.88,16.26s-2.5,44.11-43.8,41.29c0,0-26.9,4.7-82.27-13.13l-34.09-8.76s-14.08-12.2-26.59,16c0,0-24.4,37.54-46.61,55.06s-50.68,41.6-50.68,41.6-22.21-.31-27.21-5.94l72-116.06L670.36,585s15.33-11.89,41.92,0Z" transform="translate(0 31.74)"/><path class="cls-14" d="M694.77,512.38l15.05,27.85L711.91,554s20-22.47,27.47-35c2.11-3.55,3.49-6.57,3.55-8.51,0,0,4.86-4.76,4.63,13.73,0,.52,0,1,0,1.59-.54,20.33-4.61,64.3-4.61,64.3l72.85,13.75,49.16,18.6s17.83,2.81,14.7-18.77l-17.52-50.35-6.18-26.82-.08-.4c-.43.28,6.9,4.15,15,8.76a162.91,162.91,0,0,1,15,9.45s7.65-20.55-9.16-71.81c0,0-9.89-53.07-72.16-54.63,0,0-.6,17.51-20.33,21.27,0,0-14.49.83-12.19-20.23a56.66,56.66,0,0,0-34.09,12.71s-14.71,11.59-33.48,68.51Z" transform="translate(0 31.74)"/><path class="cls-15" d="M709.82,540.23l5.6,10.33s26-30.29,27.51-40Z" transform="translate(0 31.74)"/><path class="cls-15" d="M815.78,603.9l49.16,18.6s17.83,2.81,14.7-18.77l-17.52-50.35-6.18-26.82-6.61-15S796.83,568.93,815.78,603.9Z" transform="translate(0 31.74)"/><g class="cls-16"><path class="cls-17" d="M855.86,526.16c-2.18-4.37-4.26-8.78-6.33-13.2s-4-8.88-6.08-13.31-4-8.92-5.88-13.4l-2.86-6.74c-.92-2.26-1.87-4.5-2.77-6.78,1.1,2.18,2.14,4.39,3.22,6.58l3.11,6.62c2.07,4.42,4.06,8.88,6.09,13.31s3.95,8.92,5.87,13.41S854.06,521.62,855.86,526.16Z" transform="translate(0 31.74)"/></g><g class="cls-16"><path class="cls-17" d="M759.59,463c-1.07,3.9-2.24,7.76-3.43,11.62s-2.45,7.7-3.67,11.55-2.56,7.66-3.89,11.47l-2,5.71c-.71,1.89-1.39,3.8-2.12,5.68.52-2,1.1-3.89,1.66-5.83l1.76-5.8c1.18-3.86,2.45-7.7,3.67-11.54s2.56-7.67,3.9-11.48S758.13,466.75,759.59,463Z" transform="translate(0 31.74)"/></g><g class="cls-16"><path class="cls-17" d="M812.8,422.7a60.15,60.15,0,0,1-4.09,10.23,47.16,47.16,0,0,1-6.13,9.21,27.72,27.72,0,0,1-4,3.84,21.64,21.64,0,0,1-4.81,2.87,19.32,19.32,0,0,1-5.44,1.42,20,20,0,0,1-5.62-.31h.16a20.11,20.11,0,0,1-5-.14,18.39,18.39,0,0,1-4.77-1.33,15.38,15.38,0,0,1-4.19-2.69,14.6,14.6,0,0,1-3-3.95,17.49,17.49,0,0,1-1.68-4.63,26.48,26.48,0,0,1-.61-4.85,44.81,44.81,0,0,1,.91-9.68,48.78,48.78,0,0,0-.45,9.65,27.85,27.85,0,0,0,.74,4.74,17.22,17.22,0,0,0,1.73,4.42,14.24,14.24,0,0,0,6.9,6.17A19.31,19.31,0,0,0,782.7,449h.16a21.25,21.25,0,0,0,5.34.3,18.61,18.61,0,0,0,5.17-1.3,25.1,25.1,0,0,0,8.61-6.39,46.1,46.1,0,0,0,6.28-8.92A66.64,66.64,0,0,0,812.8,422.7Z" transform="translate(0 31.74)"/></g><g class="cls-16"><path class="cls-17" d="M752.9,570.63c9.63,3.43,19.21,7,28.8,10.51l28.7,10.77,28.63,11,14.28,5.57,14.25,5.66-14.42-5.2-14.38-5.31-28.71-10.77-28.62-11C771.9,578.16,762.38,574.44,752.9,570.63Z" transform="translate(0 31.74)"/></g><g class="cls-16"><path class="cls-17" d="M717.17,540.49c-1.78-2.68-3.47-5.41-5.14-8.15s-3.3-5.5-4.91-8.27-3.19-5.57-4.71-8.39l-2.29-4.24c-.73-1.43-1.49-2.84-2.19-4.28.9,1.33,1.74,2.69,2.62,4l2.52,4.1c1.69,2.73,3.3,5.5,4.91,8.27s3.19,5.57,4.71,8.39S715.75,537.61,717.17,540.49Z" transform="translate(0 31.74)"/></g><path class="cls-18" d="M561.51,486.55l-14.18.49a2.59,2.59,0,0,0-2.34,3.51l32.76,87.68H724.43l-3.59-9.77L692,490.23a5.64,5.64,0,0,0-5.29-3.68Z" transform="translate(0 31.74)"/><path class="cls-19" d="M545.29,492.4l33.05,85.82H720.77L717.29,569c-20.23-1.63-57.18-1.74-93.31-19.53C624,549.48,579.39,526.58,545.29,492.4Z" transform="translate(0 31.74)"/><circle class="cls-20" cx="633.03" cy="567.79" r="7.7"/><path class="cls-18" d="M711.59,569.06h74.72a0,0,0,0,1,0,0v9.17a0,0,0,0,1,0,0h-71.2a3.52,3.52,0,0,1-3.52-3.52v-5.65a0,0,0,0,1,0,0Z" transform="translate(1497.9 1179.03) rotate(-180)"/><g id="hand"><path class="cls-5" d="M742.18,562.44s-6.15,8.72-2.62,7.19S745.5,565,752,564.74,742.18,562.44,742.18,562.44Z" transform="translate(0 31.74)"/><path class="cls-5" d="M748.19,563.42s-6.15,8.71-2.62,7.18S751.5,566,758,565.71,748.19,563.42,748.19,563.42Z" transform="translate(0 31.74)"/><path class="cls-5" d="M753.15,563.42s-6.15,8.71-2.62,7.18,5.94-4.59,12.46-4.89S753.15,563.42,753.15,563.42Z" transform="translate(0 31.74)"/><path class="cls-5" d="M880.27,547.85l-20.14-11.24s-5.41,4.38-11.67,4.07L785.9,554.13l-15.64-7.51s-9-3.74-1.57,7.51c0,0-14.78-5.09-33.39,9.22a.93.93,0,0,0,.43,1.65c6.4.91,26,3.52,40.47,3.52,0,0,86.26-7,88.18-8C870.71,557.06,875.42,558.55,880.27,547.85Z" transform="translate(0 31.74)"/></g><path class="cls-14" d="M855.86,526.16,887,539.08s-3.92,22.33-21.46,24.12l-18.19-28.09Z" transform="translate(0 31.74)"/><g class="cls-16"><path class="cls-17" d="M873,537.22a106.88,106.88,0,0,1-17.52-11.07A106.88,106.88,0,0,1,873,537.22Z" transform="translate(0 31.74)"/></g><polygon class="cls-21" points="402.88 623.98 383.88 622.7 343.66 881.93 350.75 881.9 402.88 623.98"/><polygon class="cls-21" points="871.67 622.34 854.58 623.93 903.13 881.79 908.18 881.79 871.67 622.34"/><rect class="cls-18" x="276.58" y="574.28" width="680.08" height="22.68" rx="3.47" transform="translate(1233.25 1202.98) rotate(-180)"/><path class="cls-19" d="M279.7,577.42h671a3.25,3.25,0,0,1,3.25,3.25v13a3.25,3.25,0,0,1-3.25,3.25h-671a2.87,2.87,0,0,1-2.87-2.87V580.29A2.87,2.87,0,0,1,279.7,577.42Z" transform="translate(1230.79 1206.12) rotate(180)"/></g><g id="clock"><rect class="cls-22" x="847.81" y="261.3" width="106.29" height="106.29" rx="53.15"/><rect class="cls-23" x="850.25" y="263.29" width="101.43" height="101.43" rx="50.71"/><g id="thinline"><rect class="cls-18" x="901.18" y="285.83" width="1" height="28.95"/></g><g id="thickline"><rect class="cls-18" x="901.68" y="313.64" width="20.27" height="1.77"/></g><circle class="cls-18" cx="901.78" cy="314.78" r="2.1"/><circle class="cls-22" cx="900.2" cy="274.62" r="2.26"/><circle class="cls-22" cx="882.04" cy="280.75" r="2.26"/><circle class="cls-22" cx="868.39" cy="295.11" r="2.26"/><circle class="cls-22" cx="920.02" cy="279.33" r="2.26"/><circle class="cls-22" cx="935.44" cy="294.18" r="2.26"/><circle class="cls-22" cx="904.11" cy="350.14" r="2.26"/><circle class="cls-22" cx="938.99" cy="313.26" r="2.26"/><circle class="cls-22" cx="935.44" cy="330.31" r="2.26"/><circle class="cls-22" cx="923.35" cy="344.12" r="2.26"/><circle class="cls-22" cx="862.55" cy="313.26" r="2.26"/><circle class="cls-22" cx="868.39" cy="329.45" r="2.26"/><circle class="cls-22" cx="882.04" cy="344.12" r="2.26"/></g><g id="plant"><g id="leaf3" class="cls-24"><path class="cls-25" d="M151.7,742.66S168,756.93,169.16,779.4l-3.09.28S160.2,757,150.38,747.91c-1.69-1.56-3-3-3.75-3.74s-20-15.81-12.45-10.12c.2.15.36-12.33,1-11.85C136.28,723,151.7,742.66,151.7,742.66Z" transform="translate(0 31.74)"/><g id="leaf3-2" data-name="leaf3"><path class="cls-26" d="M135.19,722.2s20.1-23.45,1.24-38.35c0,0-13.78-8.34-25-7.66,0,0,15.91,26.69,10.76,29.35s-15.59-31-15.59-31-31.35-3-41.43,1.81c0,0,26.8,21.93,21.15,23.23s-34.59-20.22-34.59-20.22-29.18,5-27.62,22.77,11.61,23.29,16,22.82S70.39,714.59,71,718.21s-15,15.45-25.89,16c0,0,20.57,22.68,34.24,16.14s14.84-16.93,23.36-20.82,15.8-3.89,12.28.08S96,737.45,91.13,746.07s-9.24,14.44,4.9,12.31,37.14-12.48,38.15-24.33Z" transform="translate(0 31.74)"/><path class="cls-25" d="M38.44,702.59s79.24-3.06,96.75,19.61c0,0,4,11.22,15.95,21.78l-.84,1.45s-12.27-7.76-16.12-11.38C134.18,734.05,141.86,706,38.44,702.59Z" transform="translate(0 31.74)"/></g></g><g id="leaf2" class="cls-24"><g id="leaf2-2" data-name="leaf2"><path class="cls-27" d="M205.46,692.71s-32-17.91-17.05-42.21c0,0,11.93-14.92,24.72-18.75,0,0-6.82,36.23,0,37.09s4.69-40.93,4.69-40.93,33.68-16.2,46.9-14.92c0,0-20.89,35.38-14.07,34.53s30.27-36.66,30.27-36.66,34.53-6.4,40.07,14.07-3.41,30.69-8.53,32-37.94.85-37.08,5.11,23,11.09,35.38,7.25c0,0-13.64,33.68-31.55,32s-23.45-12.78-34.53-13.64-19.18,2.13-13.64,5.12,24.3,1,33.25,8.59,16.2,12.3-.43,15.71-46.46,1.28-52.43-11.51Z" transform="translate(0 31.74)"/><path class="cls-25" d="M305.22,631.32s-89.53,29-99.76,61.39c0,0,.43,14.49-8.53,31.12v6.39s9.38-21.74,14.5-24.72C211.43,705.5,191.39,677.36,305.22,631.32Z" transform="translate(0 31.74)"/></g><path class="cls-25" d="M196.93,723.83s-13.8,21-5.93,46.48l3.55-.95s-3.45-28.11,3.78-42.25S196.93,723.83,196.93,723.83Z" transform="translate(0 31.74)"/></g><g id="leaf1" class="cls-24"><path class="cls-25" d="M167.12,708.51s16.91,28.16,6.54,61.8L169,769.06s4.55-37.06-5-55.69c-1.41-2.76-16.35-26.16-16.94-27.85-.79-2.24,7.82-18.83,7.53-17.5C154.25,669.61,167.12,708.51,167.12,708.51Z" transform="translate(0 31.74)"/><g id="leaf1-2" data-name="leaf1"><path class="cls-27" d="M154.59,668s42.15-23.61,22.48-55.64c0,0-15.73-19.67-32.59-24.72,0,0,9,47.76,0,48.89s-6.18-53.95-6.18-53.95-44.4-21.36-61.82-19.67c0,0,27.54,46.64,18.55,45.52s-39.9-48.33-39.9-48.33S9.61,551.69,2.3,578.66s4.5,40.47,11.24,42.15,50,1.13,48.89,6.74-30.34,14.62-46.64,9.56c0,0,18,44.39,41.59,42.14s30.9-16.85,45.51-18,25.29,2.81,18,6.75-32,1.28-43.84,11.32-21.35,16.21.57,20.71,61.25,1.68,69.12-15.18Z" transform="translate(0 31.74)"/><path class="cls-25" d="M23.1,587.09s118,38.22,131.49,80.93c0,0,.73,18.57,12.53,40.49l-1.3,6.12S151.75,695,146.73,684.87C146.73,684.87,173.14,647.79,23.1,587.09Z" transform="translate(0 31.74)"/></g></g><path class="cls-25" d="M72.32,847.47H239.71a10.19,10.19,0,0,0-10.18-10.19H82.5a10.19,10.19,0,0,0-10.18,10.19Z" transform="translate(0 31.74)"/><path class="cls-27" d="M156,843.27a82.56,82.56,0,0,1-82.55-82.56H238.57A82.56,82.56,0,0,1,156,843.27Z" transform="translate(0 31.74)"/><rect class="cls-28" x="71.58" y="760.71" width="169.71" height="5.04" transform="translate(312.87 1558.2) rotate(180)"/></g><g id="down-line"><path class="cls-18" d="M47,853.07H941.55c2.07,0,3.76-1.07,3.76-2.39s-1.69-2.39-3.76-2.39H47c-2.07,0-3.75,1.07-3.75,2.39S45,853.07,47,853.07Z" transform="translate(0 31.74)"/></g><g id="background"><circle class="cls-1" cx="447.96" cy="253.56" r="221.5"/><g class="cls-29"><rect class="cls-30" x="303" y="151.92" width="42.28" height="28.06" transform="translate(490.08 -126.45) rotate(90)"/><rect class="cls-31" x="463.73" y="20.59" width="110.62" height="281.87"/><rect class="cls-31" x="393.42" y="55.42" width="70.31" height="247.05"/><rect class="cls-32" x="472.92" y="34.04" width="38.83" height="20.73"/><rect class="cls-32" x="527.28" y="34.04" width="38.83" height="20.73"/><rect class="cls-32" x="472.92" y="63.12" width="38.83" height="20.73"/><rect class="cls-32" x="527.28" y="63.12" width="38.83" height="20.73"/><rect class="cls-32" x="472.92" y="92.21" width="38.83" height="20.73"/><rect class="cls-32" x="527.28" y="92.21" width="38.83" height="20.73"/><rect class="cls-32" x="472.92" y="121.29" width="38.83" height="20.73"/><rect class="cls-32" x="527.28" y="121.29" width="38.83" height="20.73"/><rect class="cls-32" x="472.92" y="150.38" width="38.83" height="20.73"/><rect class="cls-32" x="527.28" y="150.38" width="38.83" height="20.73"/><rect class="cls-32" x="472.92" y="179.46" width="38.83" height="20.73"/><rect class="cls-32" x="527.28" y="179.46" width="38.83" height="20.73"/><rect class="cls-32" x="472.92" y="208.55" width="38.83" height="20.73"/><rect class="cls-32" x="527.28" y="208.55" width="38.83" height="20.73"/><rect class="cls-32" x="472.92" y="237.63" width="38.83" height="20.73"/><rect class="cls-32" x="527.28" y="237.63" width="38.83" height="20.73"/><rect class="cls-32" x="472.92" y="266.71" width="38.83" height="20.73"/><rect class="cls-32" x="527.28" y="266.71" width="38.83" height="20.73"/><rect class="cls-32" x="412.87" y="58.88" width="37.33" height="19.92"/><rect class="cls-32" x="412.87" y="86.84" width="37.33" height="19.92"/><rect class="cls-32" x="412.87" y="114.8" width="37.33" height="19.92"/><rect class="cls-32" x="412.87" y="142.75" width="37.33" height="19.92"/><rect class="cls-32" x="412.87" y="170.71" width="37.33" height="19.92"/><rect class="cls-32" x="412.87" y="198.67" width="37.33" height="19.92"/><rect class="cls-32" x="412.87" y="226.63" width="37.33" height="19.92"/><rect class="cls-32" x="412.87" y="254.59" width="37.33" height="19.92"/><rect class="cls-32" x="412.87" y="282.54" width="37.33" height="19.92"/><rect class="cls-31" x="587.75" y="47.79" width="29.04" height="251.73"/><rect class="cls-31" x="350.7" y="90.37" width="29.04" height="216.09"/><rect class="cls-31" x="625.55" y="170.77" width="44.49" height="93.48" transform="translate(1295.59 466.76) rotate(180)"/><rect class="cls-30" x="634.48" y="182.81" width="26.63" height="8.08" transform="translate(1295.59 405.44) rotate(180)"/><rect class="cls-30" x="634.48" y="208.89" width="26.63" height="8.08" transform="translate(1295.59 457.61) rotate(180)"/><rect class="cls-30" x="634.48" y="234.97" width="26.63" height="8.08" transform="translate(1295.59 509.77) rotate(180)"/><rect class="cls-30" x="271.23" y="218.91" width="69.12" height="42.28"/><path class="cls-33" d="M576.49,253.38s-9.14-15.65.87-21.44c0,0,3-13.93,14.76-4.89,0,0,17,6.54,8.19,16.27,0,0,1.67,9.17-4.69,12Z" transform="translate(0 31.74)"/><rect class="cls-33" x="585.71" y="272.05" width="2.93" height="37.3"/><rect class="cls-31" x="242.01" y="237.63" width="98.5" height="69.12"/><rect class="cls-30" x="289.84" y="254.31" width="40.54" height="24.8"/><path class="cls-33" d="M583.48,355.09S557.33,310.3,586,293.73c0,0,8.61-39.87,42.22-14,0,0,48.49,18.72,23.44,46.54,0,0,4.76,26.24-13.44,34.39Z" transform="translate(0 31.74)"/><path class="cls-33" d="M375.89,251.21s-9.14-15.66.88-21.45c0,0,3-13.93,14.75-4.89,0,0,17,6.54,8.2,16.27,0,0,1.66,9.17-4.7,12Z" transform="translate(0 31.74)"/><rect class="cls-33" x="385.12" y="269.87" width="2.93" height="37.3"/><path class="cls-30" d="M618.2,299.25s-20.88-26.66,0-37.47c0,0,5.21-24.52,31.06-9.58,0,0,37.51,12.57,19.67,30.16,0,0,13.33,11.19,0,16.61Z" transform="translate(0 31.74)"/><path class="cls-31" d="M557.92,386.31s-36.78-47,0-66c0,0,9.17-43.21,54.73-16.89,0,0,66.08,22.16,34.65,53.14,0,0,23.49,19.72,0,29.27Z" transform="translate(0 31.74)"/><rect class="cls-30" x="234.56" y="176.16" width="42.48" height="17.37" transform="translate(440.65 -39.21) rotate(90)"/><rect class="cls-30" x="156.29" y="187.89" width="136.45" height="38.62" transform="translate(431.71 14.42) rotate(90)"/><path class="cls-34" d="M297.28,68.24s-5.68-17.46,18.55-20.42c0,0,11.45-27.57,30.73,1.4,0,0,25.88,1.56,14.7,19Z" transform="translate(0 31.74)"/><path class="cls-34" d="M488,30.94S484,18.42,501.32,16.3c0,0,8.2-19.76,22,1,0,0,18.55,1.11,10.53,13.63Z" transform="translate(0 31.74)"/><path class="cls-35" d="M358.75,43.59s-2.29-7,7.47-8.22c0,0,4.6-11.1,12.37.57,0,0,10.42.62,5.92,7.65Z" transform="translate(0 31.74)"/><path class="cls-35" d="M541.5,70.33S536.14,53.84,559,51c0,0,10.81-26,29,1.33,0,0,24.45,1.47,13.89,18Z" transform="translate(0 31.74)"/><path class="cls-36" d="M464.09,47.31c-5.13-2.15-12-2.47-12-2.47-19.29-22.3-30.73-1.08-30.73-1.08C397.13,46,402.81,59.48,402.81,59.48h64L511.28,57Z" transform="translate(0 31.74)"/><path class="cls-33" d="M579.49,417.8s-51.34-50.46-82.5-13.16c0,0,18.55-67.92,62.45-29.57Z" transform="translate(0 31.74)"/><path class="cls-33" d="M575,416.17S620.37,355,652,371c0,0-7.94-10.66-25.91-11.75-26.5-1.61-49,19.32-50.47,45.83Z" transform="translate(0 31.74)"/><path class="cls-33" d="M580.14,415s-37.91-102.85,10.52-106.91c0,0-40.11,8-34,65.94Z" transform="translate(0 31.74)"/><path class="cls-33" d="M575,416.17s17.45-82.08,49.57-90.52c0,0-34.62-11.66-53.53,43.48Z" transform="translate(0 31.74)"/><path class="cls-33" d="M552.83,438.84s-47.74-46.93-76.72-12.24c0,0,17.25-63.16,58.08-27.5Z" transform="translate(0 31.74)"/><path class="cls-33" d="M548.62,437.32s42.22-56.87,71.6-42.05c0,0-7.38-9.91-24.09-10.93-24.65-1.49-45.58,18-46.94,42.63Z" transform="translate(0 31.74)"/><path class="cls-33" d="M553.43,436.27s-35.25-95.64,9.78-99.42c0,0-37.29,7.42-31.58,61.32Z" transform="translate(0 31.74)"/><path class="cls-33" d="M548.62,437.32s16.22-76.32,46.09-84.17c0,0-32.19-10.85-49.77,40.43Z" transform="translate(0 31.74)"/><rect class="cls-37" x="419.01" y="-16.64" width="57.04" height="455.84" transform="translate(4.17 462.94) rotate(-51.65)"/><rect class="cls-37" x="478.86" y="-45.02" width="29.65" height="416.56" transform="translate(59.36 480.91) rotate(-51.65)"/><rect class="cls-37" x="528.09" y="-84.38" width="15.78" height="309.9" transform="translate(148.1 478.89) rotate(-51.65)"/><rect class="cls-37" x="613.31" y="160.28" width="21.97" height="102.78" transform="translate(70.97 601.72) rotate(-51.65)"/><rect class="cls-37" x="255.33" y="97.65" width="21.97" height="84.04" transform="translate(-8.45 293.63) rotate(-51.65)"/><rect class="cls-37" x="451.22" y="-33.72" width="51.7" height="244.75" transform="translate(111.57 439.56) rotate(-51.65)"/><rect class="cls-37" x="229.47" y="167.9" width="51.7" height="57.74" transform="translate(-57.4 306.68) rotate(-51.65)"/><path class="cls-38" d="M380,448.06s-6.38-38.07,5.81-51.24" transform="translate(0 31.74)"/></g><circle class="cls-39" cx="446.96" cy="253.74" r="221.5"/></g><g id="clock-2" data-name="clock"><circle class="cls-40" cx="276.56" cy="128.29" r="39.36"/><g id="thinline-2" data-name="thinline"><rect class="cls-41" x="278.19" y="97.36" width="1.15" height="31.5"/></g><g id="thickline-2" data-name="thickline"><rect class="cls-41" x="278.25" y="126.49" width="22.77" height="2.37"/></g><path class="cls-40" d="M225.46,109.87l-.89.31c-.07-.19-6.78-19.82,2.22-36.61,5.57-10.37,15.86-17.52,30.58-21.25l.23.91c-14.46,3.66-24.54,10.66-30,20.78C218.81,90.44,225.39,109.68,225.46,109.87Z" transform="translate(0 31.74)"/></g><g id="calendar"><path class="cls-18" d="M603.41,140.31a50.61,50.61,0,0,0-40.93,80.39l-19.66,31.86,41.78-14.63a50.62,50.62,0,1,0,18.81-97.62Zm0,99.87a49,49,0,0,1-18.47-3.58l-.17-.07-37.06,11.75,16.55-27.45-.35-.47a49.26,49.26,0,1,1,39.5,19.82Z" transform="translate(0 31.74)"/><path class="cls-18" d="M636.39,168a13.14,13.14,0,0,0-8-8,12.94,12.94,0,0,0-4.37-.75H583.73a12.94,12.94,0,0,0-4.37.75,13.18,13.18,0,0,0-8,8,13,13,0,0,0-.74,4.35v40.33a13.09,13.09,0,0,0,13.08,13.08h40.32a13.1,13.1,0,0,0,13.09-13.08V172.39A12.84,12.84,0,0,0,636.39,168Zm-.61,44.69a11.74,11.74,0,0,1-11.73,11.73H583.73A11.74,11.74,0,0,1,572,212.72V172.39a11.75,11.75,0,0,1,11.73-11.73h40.32a11.75,11.75,0,0,1,11.73,11.73Z" transform="translate(0 31.74)"/><path class="cls-42" d="M580.49,191.73h46.79a9.17,9.17,0,0,1,9.17,9.17v10.15a0,0,0,0,1,0,0H571.32a0,0,0,0,1,0,0V200.9A9.17,9.17,0,0,1,580.49,191.73Z"/><path class="cls-43" d="M590.21,184.18a.82.82,0,0,0-.67-.32.72.72,0,0,0-.51.14c-.09.1-.28.35-.58.76a6,6,0,0,1-1,1.12,6.63,6.63,0,0,1-1.53,1,5.5,5.5,0,0,0-.89.49.71.71,0,0,0-.26.6.87.87,0,0,0,.26.61.79.79,0,0,0,.59.27,6.54,6.54,0,0,0,2.71-1.55v7.21a1.39,1.39,0,0,0,.29,1,1,1,0,0,0,.78.33c.72,0,1.09-.53,1.09-1.59v-9.08A1.44,1.44,0,0,0,590.21,184.18Z" transform="translate(0 31.74)"/><path class="cls-43" d="M602.08,193.93a1.5,1.5,0,0,0-.94-.25H597a4.69,4.69,0,0,1,.39-.52,13.26,13.26,0,0,1,1.63-1.51c.8-.65,1.36-1.13,1.7-1.43a5.48,5.48,0,0,0,1-1.26,3.44,3.44,0,0,0,.49-1.79,3.31,3.31,0,0,0-.89-2.23,3.09,3.09,0,0,0-1-.7,5.14,5.14,0,0,0-2.07-.38,4.68,4.68,0,0,0-1.75.3,3.46,3.46,0,0,0-1.24.78,3.23,3.23,0,0,0-.73,1.08,2.83,2.83,0,0,0-.25,1.14,1,1,0,0,0,.26.71.93.93,0,0,0,.66.26.85.85,0,0,0,.69-.28,3.1,3.1,0,0,0,.42-.82,4.23,4.23,0,0,1,.26-.65,1.94,1.94,0,0,1,2.54-.69,1.71,1.71,0,0,1,.66.62,1.74,1.74,0,0,1,.24.91,2.23,2.23,0,0,1-.22.95,3.59,3.59,0,0,1-.66,1,7.38,7.38,0,0,1-1.08.92,11.77,11.77,0,0,0-1.22,1c-.56.52-1.19,1.14-1.9,1.87a2.69,2.69,0,0,0-.46.74,1.91,1.91,0,0,0-.22.76,1.06,1.06,0,0,0,.33.77,1.27,1.27,0,0,0,.93.33h5.83a1.07,1.07,0,0,0,.79-.27.92.92,0,0,0,.25-.66A.85.85,0,0,0,602.08,193.93Z" transform="translate(0 31.74)"/><polygon id="rightmark" class="cls-42" points="607.32 248.27 590.25 232.52 592.09 230.53 607.29 244.56 643.59 210.07 645.46 212.03 607.32 248.27"/><circle class="cls-43" cx="607.92" cy="202.68" r="2.64"/><circle class="cls-43" cx="615.44" cy="202.68" r="2.64"/><circle class="cls-43" cx="622.97" cy="202.68" r="2.64"/><path class="cls-18" d="M543.45,184l-1.33-.28c.07-.29,6.5-29.47,30.15-43.37,14.61-8.59,32.62-9.68,53.53-3.25l-.4,1.29c-20.53-6.32-38.18-5.27-52.44,3.12C549.81,155.12,543.51,183.72,543.45,184Z" transform="translate(0 31.74)"/></g><g id="leaf-set1"><path class="cls-21" d="M335.27,409.92s-128.42-26.75-95.68-195.47C239.59,214.45,391.47,287.87,335.27,409.92Z" transform="translate(0 31.74)"/><g class="cls-44"><line class="cls-45" x1="239.59" y1="246.2" x2="335.27" y2="441.66"/><line class="cls-46" x1="297.05" y1="409.69" x2="326.6" y2="423.95"/><line class="cls-46" x1="331.25" y1="401.76" x2="332.67" y2="436.35"/><line class="cls-46" x1="282.49" y1="380.21" x2="312.04" y2="394.47"/><line class="cls-46" x1="316.7" y1="372.28" x2="318.11" y2="406.87"/><line class="cls-46" x1="268.85" y1="352.9" x2="298.4" y2="367.16"/><line class="cls-46" x1="303.06" y1="344.97" x2="304.47" y2="379.56"/><line class="cls-46" x1="255.98" y1="324.92" x2="285.53" y2="339.18"/><line class="cls-46" x1="290.19" y1="316.99" x2="291.6" y2="351.58"/><line class="cls-46" x1="245.09" y1="303.21" x2="274.64" y2="317.47"/><line class="cls-46" x1="279.29" y1="295.28" x2="280.71" y2="329.87"/><line class="cls-46" x1="234.1" y1="279.91" x2="263.65" y2="294.17"/><line class="cls-46" x1="268.3" y1="271.98" x2="269.72" y2="306.57"/></g><path id="darkleaf" class="cls-18" d="M332.88,402.47s-26.86-1.8-36.44,9.47a4.2,4.2,0,0,1-1.79,1.2c-4.94,1.78-23.54,7.39-25.75-8.29a3.28,3.28,0,0,1,.77-2.6c3.45-4,14.59-17.84,1.33-15.55,0,0-35.74,12.67-45.54,7.71,0,0-18.72-10.21-1-26.58,0,0,13.94-13.22-5.42-12.16,0,0-63.17,11.09-59.34-31.5,0,0,10.55-30.85,57.87,7.95,0,0,14,7.44,10.29-6.74,0,0-11.43-24.61,6.29-16,0,0,11.4,9.35,13.2,23.41A21.28,21.28,0,0,0,252,343.52c2.38,2.89,5.46,5.88,8.62,6.83a5.32,5.32,0,0,0,6.72-4.78c.55-6.59,2.72-21.07,11.1-10.8a14.18,14.18,0,0,1,3.11,7.6c.55,5.56,2.24,16.41,7.36,22.29,1.84,2.11,2.95,4.8,5,6.73,2.95,2.8,4.82,5.25,9-.41,0,0-2.52-30.42,11-24.28a5.49,5.49,0,0,0,2.18.48c2,.05,6.39,3,6.42,15.22A50.91,50.91,0,0,0,324.87,378Z" transform="translate(0 31.74)"/><path id="lightleaf" class="cls-41" d="M333.52,405.81s-18.34,5.73-23.65,15.78a15.39,15.39,0,0,1-4.61,5.45,27.19,27.19,0,0,1-6.06,3.31c-6.73,2.5-13.36-3.83-11.53-10.78,1.37-5.22,2.06-11.79-4.86-7.64,0,0-23,19.78-31.73,18.91,0,0-16.92-2.2-8.44-19.53,0,0,6.57-13.89-7.56-7.5,0,0-42.13,25.44-52.74-4.4a8.58,8.58,0,0,1-.37-4.49c1.2-6.16,7.91-20.5,45.21-8.25,0,0,12.57,1.51,5.72-8,0,0-15.63-15.05.07-13.75,0,0,11.19,3.68,16.6,13.63a13.3,13.3,0,0,0,4.94,5.18c.94.54,1.85,1.09,2.39,1.45a8.54,8.54,0,0,0,13.26-7.92c-.43-4.26-1.87-9,3-6.33a11.57,11.57,0,0,1,4.75,5,49.31,49.31,0,0,0,12.28,14.62c1.53,1.23,3.43,1.9,5,3.14s3.89,2.39,5.55.3a4.75,4.75,0,0,0,.53-4.77c-2.13-5.06-7.35-19.9,1.88-19.79a13.27,13.27,0,0,0,2.09-.14c1.71-.26,5.87.45,9.68,11.65a21.55,21.55,0,0,0,3.74,6.7Z" transform="translate(0 31.74)"/></g><g id="smallleafes"><path class="cls-47" d="M494,226.55c-81.75,62.94-115.83,155.52-76.2,207" transform="translate(0 31.74)"/><path class="cls-21" d="M469.41,247.7s17-15.08,31.06-1.88A5.25,5.25,0,0,1,502,251C501,254.76,495.15,258.58,469.41,247.7Z" transform="translate(0 31.74)"/><path class="cls-21" d="M450.43,268.09S465.21,250.85,481,262a5.25,5.25,0,0,1,2.26,4.91C482.69,270.8,477.41,275.38,450.43,268.09Z" transform="translate(0 31.74)"/><path class="cls-21" d="M433,292.87s15.79-18.43,32.11-4.85C465.09,288,473.45,303.8,433,292.87Z" transform="translate(0 31.74)"/><path class="cls-21" d="M417.53,319.61s13.31-20.29,31.23-8.91C448.76,310.7,459.06,325.29,417.53,319.61Z" transform="translate(0 31.74)"/><path class="cls-21" d="M406,349.51s9.19-22.46,29-14.71C435,334.8,447.86,347.16,406,349.51Z" transform="translate(0 31.74)"/><path class="cls-21" d="M402.61,375.65S411.4,353,431.3,360.42C431.3,360.42,444.41,372.54,402.61,375.65Z" transform="translate(0 31.74)"/><path class="cls-21" d="M406.22,409.08s-1.67-24.2,19.49-26C425.71,383.11,442.73,388.5,406.22,409.08Z" transform="translate(0 31.74)"/><path class="cls-21" d="M449.88,266.67s12.47-20.81-5.57-32C444.31,234.68,426.69,231.75,449.88,266.67Z" transform="translate(0 31.74)"/><path class="cls-21" d="M434.27,289.44s12.77-20.63-5.13-32.06C429.14,257.38,411.57,254.21,434.27,289.44Z" transform="translate(0 31.74)"/><path class="cls-21" d="M420.14,311.11s9.49-22.33-9.92-30.92C410.22,280.19,392.36,279.72,420.14,311.11Z" transform="translate(0 31.74)"/><path class="cls-21" d="M402.67,365.7s1.46-24.22-19.71-25.81C383,339.89,366,345.43,402.67,365.7Z" transform="translate(0 31.74)"/><path class="cls-21" d="M409.44,334.92s5.28-23.68-15.37-28.61C394.07,306.31,376.43,309.09,409.44,334.92Z" transform="translate(0 31.74)"/><path class="cls-21" d="M402.15,397.09s-2.54-24.14-23.68-22.23C378.47,374.86,362.63,383.11,402.15,397.09Z" transform="translate(0 31.74)"/><path class="cls-21" d="M467.6,249.2s15.08-17,1.87-31.06a5.28,5.28,0,0,0-5.17-1.57C460.54,217.61,456.71,223.46,467.6,249.2Z" transform="translate(0 31.74)"/><path class="cls-21" d="M493.11,227.8s2.22-22.08,21.19-21.55a4.32,4.32,0,0,1,2.91,1.16C519.88,210,522.86,217.13,493.11,227.8Z" transform="translate(0 31.74)"/></g><g id="leaf-set2"><path class="cls-48" d="M454.79,440.67s85.15-104.36,176.8-68C631.59,372.69,462,272.43,454.79,440.67Z" transform="translate(0 31.74)"/><path class="cls-49" d="M617.38,368.14c-51.49-11.48-111.42,8.24-163.67,72.37" transform="translate(0 31.74)"/><path class="cls-38" d="M499.88,396.2s2.77-27.95,16-37.87" transform="translate(0 31.74)"/><path class="cls-38" d="M537.05,375.48s1.61-17.81,23.05-23.1" transform="translate(0 31.74)"/><path class="cls-38" d="M572.8,366.52s7-10.33,18.74-6.66" transform="translate(0 31.74)"/><path class="cls-50" d="M455.7,442.3s118.72-63.64,189.35,5.17C645.05,447.47,527,289.75,455.7,442.3Z" transform="translate(0 31.74)"/><path class="cls-49" d="M633.68,437.81c-43.12-30.38-106-35.21-178.92,3.92" transform="translate(0 31.74)"/><path class="cls-38" d="M514.42,418.57s13.3-24.74,29.34-28.8" transform="translate(0 31.74)"/><path class="cls-38" d="M556.7,413.72s8.32-15.83,30.16-12.47" transform="translate(0 31.74)"/><path class="cls-38" d="M593.14,419.19s10.39-6.87,19.87,1.05" transform="translate(0 31.74)"/><g id="sideleaf"><path class="cls-48" d="M458.51,440.47s93.08-26,132.18,33C590.69,473.44,531.63,344.31,458.51,440.47Z" transform="translate(0 31.74)"/><path class="cls-49" d="M584.18,466.94c-25.63-27.84-69-40.75-126-24.36" transform="translate(0 31.74)"/><path class="cls-38" d="M503.47,435.38s13.08-15.34,24.94-15.75" transform="translate(0 31.74)"/><path class="cls-38" d="M533.85,438.38s8.24-9.83,23-4.17" transform="translate(0 31.74)"/><path class="cls-38" d="M558.58,447.74s8.32-3.24,13.77,3.74" transform="translate(0 31.74)"/></g></g><g id="man-cell"><path class="cls-51" d="M494.94,297.4l13.64,1.79,4.52-4a10.23,10.23,0,0,1,11.48-1.39l8.79,4.58,15.39-9.12a4.21,4.21,0,0,1,4.19-.06l.66.37a4.19,4.19,0,0,1,1.87,5.24c-2.57,6.39-8.76,19.59-17,22.77,0,0-9,9.66-22.22,5.16L492,315.49Z" transform="translate(0 31.74)"/><path class="cls-14" d="M473.22,441.37a194.69,194.69,0,0,1-45.43.47c-5.32-.59-10.51-1-15.71-1.92a242.65,242.65,0,0,1-63.83-20.8c-3.4-1.66-6.76-3.67-10.07-5.48-.76-7.09-2.78-38.72,15.58-53.65.18-.15.36-.3.55-.44a32.88,32.88,0,0,1,5.13-3.3c.25-.14.5-.27.76-.39l1.45-.68.73.21,81.85,22.53h0l9.82,2.71s.91,2.74,2.45,7.41C460.05,398.77,466.82,419.72,473.22,441.37Z" transform="translate(0 31.74)"/><path class="cls-52" d="M363.68,357.12c-.53.57-1,1.15-1.57,1.75-.34.41-.69.8-1,1.23h0c-1,1.22-2,2.53-2.95,3.92-.12.16-.24.34-.36.52-7.08,10.48-12.21,25.31-8.53,45.23l.39,9.72q-5.11-2.47-10.07-5.21c-.76-7.08-2.87-37.63,15.49-52.56.18-.16.37-.31.55-.44a33.45,33.45,0,0,1,5.14-3.3c.24-.14.5-.27.75-.39.48-.23,1-.46,1.46-.68Z" transform="translate(0 31.74)"/><polygon class="cls-51" points="423 174.2 416.79 200.35 420.22 216.13 392.06 212.29 375.16 190.11 373.71 180.58 385.64 172.33 391.67 170.3 397.25 150.55 423 174.2"/><path class="cls-10" d="M421.25,150.05c-9.84-7.06-11.72-5.94-21.45-13.84,2.24,11.07,16.19,42,16.19,42C416.82,172.11,420.43,150.33,421.25,150.05Z" transform="translate(0 31.74)"/><path class="cls-53" d="M392.86,131.59s17.88,28.66,25.82,30.28L416,181.72s-10.1-3.53-17.27-9.82c0,0-16-16.43-15.28-21S378.34,139.87,392.86,131.59Z" transform="translate(0 31.74)"/><g id="finger"><path id="finger-2" data-name="finger" class="cls-51" d="M481.82,276l15.2-5.07s3-6.57,17.3-12.43a2.41,2.41,0,0,1,.92-.16l19.91.83a2.34,2.34,0,0,1,1.49.64l9.87,9.38a3.85,3.85,0,0,1,1.18,2.45h0a2.52,2.52,0,0,1-3.8,2.39l-10.67-6.32a2.25,2.25,0,0,0-1.36-.31l-8.43.74a.94.94,0,0,0-.86,1c.14,1.77.94,5.43,5.1,5.06,0,0,5.74-2.77,5.84,3.62,0,0,2.22,10-5.72,13.26a2.25,2.25,0,0,1-.93.16l-17-.28-18-.71-5.44.94Z" transform="translate(0 31.74)"/></g><path class="cls-13" d="M335.94,239.11c7.21,35.11,28.65,65.59,28.65,65.59l-9.25,56.07c.72,1.68,2.59,3.36,5.37,5,22,13,99.86,24.44,99.86,24.44,6.71-6.79-.71-77.22-.71-77.22L496,319l3.43-20.81-12.66-2.09,6.92-5.36-2.36-19.43-37.05.22c2.33-8.44-9.49-60.72-9.49-60.72-.13-5.83-10.93-25.83-18.49-39.17-4.11-7.24-7.27-12.53-7.27-12.53L416,181.71C388.4,175.45,384.37,137,384.37,137c-4.58,1.39-9.25,4.75-13.61,8.82q-1.65,1.55-3.22,3.19a142.58,142.58,0,0,0-16.65,22C327.3,187.93,335.94,239.11,335.94,239.11Z" transform="translate(0 31.74)"/><path class="cls-52" d="M335.31,239.43C342.53,274.53,364,305,364,305l-9.25,56.07c.72,1.68,2.58,3.37,5.37,5l9.17-55.58c-31.43-66.66-20.42-105.14-20.42-105.14.43-18.23,10.43-41.09,18.08-56a142.23,142.23,0,0,0-16.65,21.94C326.68,188.25,335.31,239.43,335.31,239.43Z" transform="translate(0 31.74)"/><path class="cls-12" d="M370.76,145.82,382.56,166a39.55,39.55,0,0,0,14.7,14.44l21.93,12.38,7.14-21.17c-4.11-7.24-7.27-12.53-7.27-12.53L416,181.71C389.8,169.8,384.37,137,384.37,137,379.79,138.39,375.12,141.75,370.76,145.82Z" transform="translate(0 31.74)"/><line class="cls-54" x1="579.43" y1="295.71" x2="521.49" y2="348.4"/><g class="cls-55"><path class="cls-56" d="M392.8,208.23c1.61,6,3.11,12.06,4.6,18.11s2.89,12.11,4.33,18.17,2.79,12.14,4.12,18.22l2,9.13c.62,3.05,1.28,6.09,1.88,9.15-.82-3-1.57-6-2.36-9l-2.24-9.07c-1.49-6-2.89-12.11-4.34-18.17s-2.78-12.13-4.11-18.22S394,214.34,392.8,208.23Z" transform="translate(0 31.74)"/></g><g class="cls-55"><path class="cls-56" d="M409.7,281c3.67-1,7.37-1.88,11.07-2.75s7.42-1.66,11.13-2.5,7.44-1.55,11.18-2.26l5.6-1.06c1.88-.31,3.75-.66,5.63-.95-1.83.51-3.68,1-5.52,1.43l-5.55,1.33c-3.7.87-7.42,1.66-11.13,2.49s-7.45,1.55-11.18,2.27S413.46,280.42,409.7,281Z" transform="translate(0 31.74)"/></g><g class="cls-55"><path class="cls-56" d="M486.39,293.94A86.2,86.2,0,0,1,483,275.66a76.52,76.52,0,0,1,2.21,9A79,79,0,0,1,486.39,293.94Z" transform="translate(0 31.74)"/></g><g class="cls-55"><path class="cls-56" d="M488.4,316.44a76.94,76.94,0,0,1,1.4-9.21,74.56,74.56,0,0,1,2.38-9,76.94,76.94,0,0,1-1.4,9.21A78.47,78.47,0,0,1,488.4,316.44Z" transform="translate(0 31.74)"/></g><g class="cls-55"><path class="cls-56" d="M458.9,380.65c-8.74-.26-17.46-1-26.16-2s-17.35-2.33-25.95-4A202.72,202.72,0,0,1,381.4,368c-8.23-2.94-16.43-6.43-23.31-11.89a64,64,0,0,0,11.36,6.45,118.43,118.43,0,0,0,12.19,4.71c4.16,1.32,8.34,2.54,12.57,3.61s8.5,2,12.78,2.84c8.55,1.74,17.18,3.07,25.84,4.21q6.5.87,13,1.52C450.19,379.93,454.54,380.31,458.9,380.65Z" transform="translate(0 31.74)"/></g><g class="cls-55"><path class="cls-56" d="M456.13,397.46c-8.74-.26-17.47-1-26.16-2s-17.36-2.32-26-4a204.18,204.18,0,0,1-25.4-6.71c-8.22-2.93-16.42-6.43-23.31-11.89a63.77,63.77,0,0,0,11.37,6.45,117.55,117.55,0,0,0,12.19,4.71c4.15,1.32,8.34,2.54,12.57,3.61s8.49,2,12.77,2.85c8.56,1.73,17.19,3.07,25.85,4.2q6.49.87,13,1.52C447.42,396.74,451.77,397.12,456.13,397.46Z" transform="translate(0 31.74)"/></g><g class="cls-55"><path class="cls-56" d="M369.88,310.18a42.81,42.81,0,0,0,10.34,7.44,41.37,41.37,0,0,0,12,4.09,39.94,39.94,0,0,0,12.63.07A46.32,46.32,0,0,0,416.94,318l0,0h0l16.37-5.25,16.38-5.21c10.93-3.41,21.87-6.83,32.85-10.12-10.84,3.72-21.72,7.31-32.6,10.91l-16.35,5.31-16.35,5.27,0,0A47.14,47.14,0,0,1,405,322.65a38.21,38.21,0,0,1-12.89-.24A40.62,40.62,0,0,1,380,318,41.32,41.32,0,0,1,369.88,310.18Z" transform="translate(0 31.74)"/></g><g class="cls-55"><path class="cls-56" d="M409,393.33c.55,3.88,1,7.77,1.42,11.67s.76,7.79,1.15,11.68.65,7.8.92,11.71l.37,5.86c.09,2,.22,3.91.28,5.87-.29-1.94-.51-3.88-.77-5.83l-.65-5.83c-.42-3.89-.77-7.79-1.15-11.69s-.65-7.8-.92-11.71S409.09,397.25,409,393.33Z" transform="translate(0 31.74)"/></g><g id="manhead"><path class="cls-51" d="M455.83,96.31l-8,36.78a22.49,22.49,0,0,1-16.45,17.33c-6.12,1.45-13.7.41-21.88-7.22,0,0-14.47-8-13.44-23.62l2.19-13.26s-14.53-7.66,8-18.2C406.23,88.12,439.25,61.67,455.83,96.31Z" transform="translate(0 31.74)"/><path class="cls-57" d="M454.64,103.54s25,1.35,4-24.42c0,0-.95-17.8-38.91-12.92,0,0-17.77-7.13-21.68,6.4L392.4,95.47a8.37,8.37,0,0,0-.19,3l3,25.42,1,.06,2.08-17.58-.12-8.69s9-1.54,12.63-12.59a15.11,15.11,0,0,1,3.53,2,16.11,16.11,0,0,0,10.2,3.21c8.77-.13,21.52.75,23.93,6.74Z" transform="translate(0 31.74)"/><ellipse class="cls-6" cx="445.13" cy="128.03" rx="3.18" ry="2.45" transform="translate(185.3 543.21) rotate(-71.92)"/><ellipse class="cls-6" cx="431.17" cy="123.47" rx="2.89" ry="2.23" transform="translate(180.01 526.79) rotate(-71.92)"/><path class="cls-7" d="M436.37,129.12l1.75-.34a2.31,2.31,0,0,0,1.06-1.79l-.15-6.74" transform="translate(0 31.74)"/><path id="msmile" class="cls-7" d="M431,134.06s-.31,6,3.66,6.06c2,.35,4.2-1.37,5-3.84" transform="translate(0 31.74)"/><ellipse class="cls-8" cx="449.08" cy="115.21" rx="1.73" ry="1.34" transform="translate(200.21 538.12) rotate(-71.92)"/><ellipse class="cls-8" cx="434.13" cy="112.27" rx="1.73" ry="1.34" transform="translate(192.69 521.87) rotate(-71.92)"/><ellipse class="cls-51" cx="400.72" cy="97.81" rx="7.45" ry="4.16" transform="translate(238.96 509) rotate(-80.63)"/></g></g><g id="greentag"><polygon class="cls-58" points="736.37 421.94 736.37 346.99 557.31 346.99 557.31 421.94 713.52 421.94 719.45 432.21 725.38 442.48 731.3 432.21 737.23 421.94 736.37 421.94"/><polygon class="cls-59" points="688.06 421.94 738.04 421.94 738.04 346.99 735.68 346.99 688.06 421.94"/><path class="cls-53" d="M581.26,340.53a1.2,1.2,0,0,1,.32.3L590.94,353c0-.2,0-.39,0-.57s0-.36,0-.53V340.46h1.91v16.12h-1.1a1,1,0,0,1-.44-.09,1.06,1.06,0,0,1-.34-.31l-9.35-12.13a5.07,5.07,0,0,1,0,.55c0,.18,0,.34,0,.49v11.49H579.7V340.46h1.13A1,1,0,0,1,581.26,340.53Z" transform="translate(0 31.74)"/><path class="cls-53" d="M601,345a5.08,5.08,0,0,1,1.89.35,4.14,4.14,0,0,1,1.5,1,4.57,4.57,0,0,1,1,1.59,6.14,6.14,0,0,1,.35,2.17,1.31,1.31,0,0,1-.1.63.43.43,0,0,1-.38.16h-7.6a6.07,6.07,0,0,0,.29,1.87,3.77,3.77,0,0,0,.75,1.34,3.07,3.07,0,0,0,1.12.8,4,4,0,0,0,1.47.26,4.5,4.5,0,0,0,1.3-.17,6.76,6.76,0,0,0,.94-.38,5.89,5.89,0,0,0,.66-.38.93.93,0,0,1,.46-.17.42.42,0,0,1,.38.19l.57.73a3.93,3.93,0,0,1-.89.78,5.74,5.74,0,0,1-1.11.55,7.41,7.41,0,0,1-1.23.32,7.64,7.64,0,0,1-1.25.11,5.91,5.91,0,0,1-2.18-.4,4.91,4.91,0,0,1-1.73-1.17,5.47,5.47,0,0,1-1.13-1.91,7.77,7.77,0,0,1-.41-2.61,6.73,6.73,0,0,1,.37-2.23,5.23,5.23,0,0,1,1-1.79,4.84,4.84,0,0,1,1.68-1.19A5.56,5.56,0,0,1,601,345Zm0,1.48a3.12,3.12,0,0,0-2.29.83,4,4,0,0,0-1,2.33h6.21a4,4,0,0,0-.19-1.28,2.81,2.81,0,0,0-.57-1,2.45,2.45,0,0,0-.9-.65A3,3,0,0,0,601,346.48Z" transform="translate(0 31.74)"/><path class="cls-53" d="M606.77,345.18h1.57a.66.66,0,0,1,.63.42l2.18,7.33c.06.27.12.53.17.78s.1.51.14.76c.06-.25.13-.5.2-.76s.15-.51.24-.78l2.41-7.38a.61.61,0,0,1,.2-.28.56.56,0,0,1,.35-.11h.87a.6.6,0,0,1,.37.11.63.63,0,0,1,.21.28l2.35,7.38c.09.27.16.52.22.78s.13.51.19.75c0-.24.09-.5.15-.77s.12-.52.19-.76l2.23-7.33a.62.62,0,0,1,.59-.42h1.51l-3.7,11.4h-1.59c-.2,0-.33-.13-.41-.38l-2.52-7.73a4.61,4.61,0,0,1-.15-.53c0-.17-.07-.35-.11-.52l-.12.53a3.18,3.18,0,0,1-.14.53l-2.56,7.72a.47.47,0,0,1-.46.38h-1.51Z" transform="translate(0 31.74)"/><path class="cls-53" d="M630.2,356.58V340.46h5.16a10.08,10.08,0,0,1,2.56.29,5,5,0,0,1,1.77.83,3.27,3.27,0,0,1,1,1.33,4.45,4.45,0,0,1,.33,1.76,3.36,3.36,0,0,1-.75,2.17,4.11,4.11,0,0,1-.95.84,5.26,5.26,0,0,1-1.33.61,4.92,4.92,0,0,1,2.67,1.27,3.32,3.32,0,0,1,.9,2.43,4.59,4.59,0,0,1-.37,1.87,4.23,4.23,0,0,1-1.11,1.45,5.38,5.38,0,0,1-1.78.94,8.12,8.12,0,0,1-2.41.33Zm2.19-8.9h2.89a5.83,5.83,0,0,0,1.6-.2,3.36,3.36,0,0,0,1.12-.56,2.18,2.18,0,0,0,.66-.88,2.9,2.9,0,0,0,.22-1.12,2.49,2.49,0,0,0-.86-2.08,4.36,4.36,0,0,0-2.66-.66h-3Zm0,1.55v5.62h3.5a5.33,5.33,0,0,0,1.6-.22,3,3,0,0,0,1.11-.6,2.43,2.43,0,0,0,.64-.92,3.44,3.44,0,0,0,.2-1.18,2.41,2.41,0,0,0-.89-2,4.11,4.11,0,0,0-2.67-.73Z" transform="translate(0 31.74)"/><path class="cls-53" d="M649.1,345a5.89,5.89,0,0,1,2.27.42,4.81,4.81,0,0,1,1.71,1.18,5.22,5.22,0,0,1,1.08,1.85,7.93,7.93,0,0,1,0,4.85,5.22,5.22,0,0,1-1.08,1.85,4.66,4.66,0,0,1-1.71,1.17,6.32,6.32,0,0,1-4.53,0,4.78,4.78,0,0,1-1.72-1.17A5.24,5.24,0,0,1,644,353.3a7.93,7.93,0,0,1,0-4.85,5.24,5.24,0,0,1,1.09-1.85,4.94,4.94,0,0,1,1.72-1.18A5.87,5.87,0,0,1,649.1,345Zm0,10.17a3,3,0,0,0,2.53-1.13,5.17,5.17,0,0,0,.84-3.15,5.27,5.27,0,0,0-.84-3.18,3,3,0,0,0-2.53-1.13,3.55,3.55,0,0,0-1.48.29,2.83,2.83,0,0,0-1.06.84,3.8,3.8,0,0,0-.63,1.36,7.95,7.95,0,0,0,0,3.63,3.7,3.7,0,0,0,.63,1.34,2.83,2.83,0,0,0,1.06.84A3.55,3.55,0,0,0,649.1,355.17Z" transform="translate(0 31.74)"/><path class="cls-53" d="M661.64,345a5.89,5.89,0,0,1,2.27.42,4.81,4.81,0,0,1,1.71,1.18,5.22,5.22,0,0,1,1.08,1.85,7.93,7.93,0,0,1,0,4.85,5.22,5.22,0,0,1-1.08,1.85,4.66,4.66,0,0,1-1.71,1.17,6.32,6.32,0,0,1-4.53,0,4.78,4.78,0,0,1-1.72-1.17,5.4,5.4,0,0,1-1.09-1.85,7.93,7.93,0,0,1,0-4.85,5.4,5.4,0,0,1,1.09-1.85,4.94,4.94,0,0,1,1.72-1.18A5.87,5.87,0,0,1,661.64,345Zm0,10.17a3,3,0,0,0,2.53-1.13,5.17,5.17,0,0,0,.84-3.15,5.27,5.27,0,0,0-.84-3.18,3,3,0,0,0-2.53-1.13,3.55,3.55,0,0,0-1.48.29,2.83,2.83,0,0,0-1.06.84,3.8,3.8,0,0,0-.63,1.36,7.95,7.95,0,0,0,0,3.63,3.7,3.7,0,0,0,.63,1.34,2.83,2.83,0,0,0,1.06.84A3.55,3.55,0,0,0,661.64,355.17Z" transform="translate(0 31.74)"/><path class="cls-53" d="M671.65,340v9.75h.52a1,1,0,0,0,.37-.06,1.1,1.1,0,0,0,.33-.25l3.61-3.86a1.71,1.71,0,0,1,.33-.29.79.79,0,0,1,.45-.12h1.83l-4.21,4.47a3.45,3.45,0,0,1-.3.34,3.18,3.18,0,0,1-.35.26,1.8,1.8,0,0,1,.37.3,3.25,3.25,0,0,1,.31.4l4.46,5.63h-1.8a.77.77,0,0,1-.42-.1,1,1,0,0,1-.34-.3l-3.75-4.66a.87.87,0,0,0-.34-.31,1.29,1.29,0,0,0-.51-.08h-.56v5.45h-2V340Z" transform="translate(0 31.74)"/><path class="cls-53" d="M684.07,341.61a1.25,1.25,0,0,1-.12.54,1.6,1.6,0,0,1-.32.45,1.33,1.33,0,0,1-.46.31,1.26,1.26,0,0,1-.55.11,1.29,1.29,0,0,1-.55-.11,1.65,1.65,0,0,1-.45-.31,1.57,1.57,0,0,1-.31-.45,1.41,1.41,0,0,1-.11-.54,1.51,1.51,0,0,1,.11-.56,1.49,1.49,0,0,1,.31-.46,1.65,1.65,0,0,1,.45-.31,1.29,1.29,0,0,1,.55-.11,1.26,1.26,0,0,1,.55.11,1.33,1.33,0,0,1,.46.31,1.52,1.52,0,0,1,.32.46A1.34,1.34,0,0,1,684.07,341.61Zm-.46,3.57v11.4h-2v-11.4Z" transform="translate(0 31.74)"/><path class="cls-53" d="M687.16,356.58v-11.4h1.19a.5.5,0,0,1,.54.42l.16,1.24a6.52,6.52,0,0,1,1.66-1.33,4.36,4.36,0,0,1,2.13-.51,4.26,4.26,0,0,1,1.65.31,3.23,3.23,0,0,1,1.2.88,3.9,3.9,0,0,1,.73,1.37,6.09,6.09,0,0,1,.24,1.76v7.26h-2v-7.26a3.05,3.05,0,0,0-.6-2,2.22,2.22,0,0,0-1.81-.71,3.31,3.31,0,0,0-1.66.43,5.33,5.33,0,0,0-1.43,1.16v8.39Z" transform="translate(0 31.74)"/><path class="cls-53" d="M703.54,345a5.71,5.71,0,0,1,1.4.17,4,4,0,0,1,1.17.47h3.11v.75c0,.24-.16.4-.48.47l-1.3.18a3.41,3.41,0,0,1,.39,1.63,3.44,3.44,0,0,1-1.21,2.68,4,4,0,0,1-1.36.74,5.49,5.49,0,0,1-1.72.26,6.18,6.18,0,0,1-1.51-.19,1.93,1.93,0,0,0-.55.5.91.91,0,0,0-.18.52.7.7,0,0,0,.33.63,2.06,2.06,0,0,0,.86.31,7.54,7.54,0,0,0,1.23.09h1.41a8.19,8.19,0,0,1,1.4.13,4.14,4.14,0,0,1,1.23.41,2.18,2.18,0,0,1,1.2,2.08,3.12,3.12,0,0,1-.37,1.44,4.06,4.06,0,0,1-1.05,1.23,5.49,5.49,0,0,1-1.69.87,7.09,7.09,0,0,1-2.24.32,8.89,8.89,0,0,1-2.19-.24,5.3,5.3,0,0,1-1.57-.67,3,3,0,0,1-.93-1,2.38,2.38,0,0,1-.31-1.14,2,2,0,0,1,.54-1.44,3.73,3.73,0,0,1,1.47-.94,2,2,0,0,1-.77-.6,1.64,1.64,0,0,1-.29-1,1.61,1.61,0,0,1,.09-.51,1.89,1.89,0,0,1,.28-.52,2.56,2.56,0,0,1,.45-.49,3,3,0,0,1,.64-.42,3.48,3.48,0,0,1-1.33-1.25,3.42,3.42,0,0,1-.48-1.83,3.52,3.52,0,0,1,.32-1.51,3.43,3.43,0,0,1,.9-1.16,4,4,0,0,1,1.37-.74A5.67,5.67,0,0,1,703.54,345Zm3.57,12.17a1,1,0,0,0-.24-.7,1.45,1.45,0,0,0-.64-.41,4.07,4.07,0,0,0-.94-.21,8,8,0,0,0-1.12-.07H703a4.34,4.34,0,0,1-1.16-.15,3.34,3.34,0,0,0-1.05.74,1.53,1.53,0,0,0-.4,1.05,1.39,1.39,0,0,0,.2.71,1.67,1.67,0,0,0,.6.58,3.45,3.45,0,0,0,1,.38,6.85,6.85,0,0,0,1.45.14,6.43,6.43,0,0,0,1.46-.15,3.76,3.76,0,0,0,1.09-.42,2.15,2.15,0,0,0,.68-.66A1.52,1.52,0,0,0,707.11,357.16ZM703.54,351a3.22,3.22,0,0,0,1.08-.17,2.17,2.17,0,0,0,.78-.47,2,2,0,0,0,.48-.73,2.73,2.73,0,0,0,.16-.92,2.24,2.24,0,0,0-.64-1.67,2.59,2.59,0,0,0-1.86-.62,2.54,2.54,0,0,0-1.84.62,2.2,2.2,0,0,0-.64,1.67,2.73,2.73,0,0,0,.16.92,2,2,0,0,0,.48.73,2.17,2.17,0,0,0,.78.47A3.14,3.14,0,0,0,703.54,351Z" transform="translate(0 31.74)"/><path class="cls-53" d="M712,355.34a1.45,1.45,0,0,1,.1-.55,1.37,1.37,0,0,1,.3-.45,1.23,1.23,0,0,1,.44-.3,1.3,1.3,0,0,1,.55-.12,1.34,1.34,0,0,1,.56.12,1.37,1.37,0,0,1,.45.3,1.77,1.77,0,0,1,.3.45,1.45,1.45,0,0,1,.1.55,1.47,1.47,0,0,1-.1.56,1.71,1.71,0,0,1-.3.44,1.37,1.37,0,0,1-.45.3,1.51,1.51,0,0,1-.56.11,1.46,1.46,0,0,1-.55-.11,1.23,1.23,0,0,1-.44-.3,1.32,1.32,0,0,1-.3-.44A1.47,1.47,0,0,1,712,355.34Zm2.39-14.88v6.43c0,.34,0,.67,0,1s0,.65,0,1-.05.66-.09,1-.07.7-.11,1.09h-1.37c0-.39-.08-.75-.12-1.09s-.06-.68-.08-1,0-.65-.05-1,0-.65,0-1v-6.43Z" transform="translate(0 31.74)"/></g><g id="redtag"><polygon class="cls-60" points="636.91 93.78 636.91 164.5 636.95 164.5 642.55 174.19 648.14 183.88 653.73 174.19 659.32 164.5 878.66 164.5 878.66 93.78 636.91 93.78"/><polygon class="cls-19" points="684.07 164.5 636.91 164.5 636.91 93.78 639.14 93.78 684.07 164.5"/><path class="cls-53" d="M647.65,103.28V87.16h5.16a9.57,9.57,0,0,1,2.56.3,5,5,0,0,1,1.78.83,3.28,3.28,0,0,1,1,1.32,4.49,4.49,0,0,1,.33,1.76,3.69,3.69,0,0,1-.18,1.15,3.21,3.21,0,0,1-.57,1,3.65,3.65,0,0,1-.94.84,5,5,0,0,1-1.34.61,5,5,0,0,1,2.67,1.27,3.31,3.31,0,0,1,.91,2.43,4.53,4.53,0,0,1-.38,1.87,3.92,3.92,0,0,1-1.11,1.45,5,5,0,0,1-1.78.94,8,8,0,0,1-2.41.33Zm2.19-8.9h2.89a5.42,5.42,0,0,0,1.6-.2,3.1,3.1,0,0,0,1.12-.56,2.15,2.15,0,0,0,.66-.87,2.76,2.76,0,0,0,.22-1.12,2.46,2.46,0,0,0-.86-2.08,4.35,4.35,0,0,0-2.66-.67h-3Zm0,1.56v5.61h3.5a5.47,5.47,0,0,0,1.61-.21,3.15,3.15,0,0,0,1.1-.61,2.29,2.29,0,0,0,.64-.92,3.38,3.38,0,0,0,.2-1.17,2.42,2.42,0,0,0-.88-2,4.2,4.2,0,0,0-2.68-.72Z" transform="translate(0 31.74)"/><path class="cls-53" d="M666.56,91.71a6,6,0,0,1,2.26.41,4.83,4.83,0,0,1,1.71,1.19,5.3,5.3,0,0,1,1.09,1.85,8.13,8.13,0,0,1,0,4.85,5.35,5.35,0,0,1-1.09,1.84,4.68,4.68,0,0,1-1.71,1.18,6.43,6.43,0,0,1-4.52,0,4.64,4.64,0,0,1-1.72-1.18,5.22,5.22,0,0,1-1.1-1.84,7.93,7.93,0,0,1,0-4.85,5.17,5.17,0,0,1,1.1-1.85,4.78,4.78,0,0,1,1.72-1.19A6,6,0,0,1,666.56,91.71Zm0,10.17a2.93,2.93,0,0,0,2.52-1.13,6.38,6.38,0,0,0,0-6.33,2.92,2.92,0,0,0-2.52-1.14,3.45,3.45,0,0,0-1.49.3,2.79,2.79,0,0,0-1.06.84,3.83,3.83,0,0,0-.63,1.35,7.28,7.28,0,0,0-.21,1.82,7.09,7.09,0,0,0,.21,1.81,3.83,3.83,0,0,0,.63,1.35,2.86,2.86,0,0,0,1.06.83A3.45,3.45,0,0,0,666.56,101.88Z" transform="translate(0 31.74)"/><path class="cls-53" d="M679.1,91.71a6,6,0,0,1,2.26.41,4.83,4.83,0,0,1,1.71,1.19,5.3,5.3,0,0,1,1.09,1.85,8.13,8.13,0,0,1,0,4.85,5.35,5.35,0,0,1-1.09,1.84,4.68,4.68,0,0,1-1.71,1.18,6.43,6.43,0,0,1-4.52,0,4.64,4.64,0,0,1-1.72-1.18A5.22,5.22,0,0,1,674,100a7.93,7.93,0,0,1,0-4.85,5.17,5.17,0,0,1,1.1-1.85,4.78,4.78,0,0,1,1.72-1.19A6,6,0,0,1,679.1,91.71Zm0,10.17a2.92,2.92,0,0,0,2.52-1.13,6.38,6.38,0,0,0,0-6.33,2.9,2.9,0,0,0-2.52-1.14,3.45,3.45,0,0,0-1.49.3,2.79,2.79,0,0,0-1.06.84,3.83,3.83,0,0,0-.63,1.35,7.28,7.28,0,0,0-.21,1.82,7.09,7.09,0,0,0,.21,1.81,3.83,3.83,0,0,0,.63,1.35,2.86,2.86,0,0,0,1.06.83A3.45,3.45,0,0,0,679.1,101.88Z" transform="translate(0 31.74)"/><path class="cls-53" d="M689.1,86.71v9.76h.52a.82.82,0,0,0,.37-.07,1,1,0,0,0,.33-.25l3.61-3.86a1.81,1.81,0,0,1,.34-.29.83.83,0,0,1,.45-.11h1.82l-4.2,4.46-.31.34a1.87,1.87,0,0,1-.35.26,1.85,1.85,0,0,1,.37.31,3.25,3.25,0,0,1,.31.4l4.47,5.62H695a.93.93,0,0,1-.42-.09,1.15,1.15,0,0,1-.33-.3l-3.76-4.67a.81.81,0,0,0-.34-.31,1.29,1.29,0,0,0-.5-.07h-.57v5.44h-2V86.71Z" transform="translate(0 31.74)"/><path class="cls-53" d="M701.52,88.31a1.26,1.26,0,0,1-.12.55,1.55,1.55,0,0,1-.32.45,1.57,1.57,0,0,1-.45.31,1.5,1.5,0,0,1-.55.11,1.42,1.42,0,0,1-.55-.11,1.57,1.57,0,0,1-.45-.31,1.51,1.51,0,0,1-.31-.45,1.26,1.26,0,0,1-.12-.55,1.38,1.38,0,0,1,.12-.56,1.44,1.44,0,0,1,.31-.46,1.57,1.57,0,0,1,.45-.31,1.42,1.42,0,0,1,.55-.11,1.5,1.5,0,0,1,.55.11,1.57,1.57,0,0,1,.45.31,1.47,1.47,0,0,1,.32.46A1.38,1.38,0,0,1,701.52,88.31Zm-.45,3.58v11.39h-2V91.89Z" transform="translate(0 31.74)"/><path class="cls-53" d="M704.61,103.28V91.89h1.19a.52.52,0,0,1,.55.41l.15,1.24a6.4,6.4,0,0,1,1.67-1.33,4.4,4.4,0,0,1,2.12-.5A4.1,4.1,0,0,1,712,92a3.25,3.25,0,0,1,1.19.87,4,4,0,0,1,.73,1.37,6.1,6.1,0,0,1,.25,1.77v7.25h-2V96a3.11,3.11,0,0,0-.59-2,2.21,2.21,0,0,0-1.81-.71,3.45,3.45,0,0,0-1.67.42,5.49,5.49,0,0,0-1.42,1.16v8.39Z" transform="translate(0 31.74)"/><path class="cls-53" d="M721,91.7a5.64,5.64,0,0,1,1.39.16,4.57,4.57,0,0,1,1.18.48h3.1v.74c0,.25-.16.4-.48.47l-1.29.18a3.53,3.53,0,0,1,.38,1.63,3.6,3.6,0,0,1-.32,1.52,3.37,3.37,0,0,1-.89,1.16,4,4,0,0,1-1.36.74A5.2,5.2,0,0,1,721,99a5.76,5.76,0,0,1-1.52-.19,1.88,1.88,0,0,0-.54.5.88.88,0,0,0-.19.52.73.73,0,0,0,.33.64,2.52,2.52,0,0,0,.87.31,7.54,7.54,0,0,0,1.23.09h1.4a8,8,0,0,1,1.4.12,4.45,4.45,0,0,1,1.23.41,2.36,2.36,0,0,1,.87.79,2.32,2.32,0,0,1,.33,1.3A3,3,0,0,1,726,105a3.72,3.72,0,0,1-1,1.24,5.32,5.32,0,0,1-1.68.86,7.1,7.1,0,0,1-2.25.33,8.46,8.46,0,0,1-2.19-.25,5.38,5.38,0,0,1-1.56-.66,2.76,2.76,0,0,1-.93-1,2.22,2.22,0,0,1-.31-1.14,2.12,2.12,0,0,1,.53-1.44,3.85,3.85,0,0,1,1.47-.94,2,2,0,0,1-.77-.6,1.61,1.61,0,0,1-.29-1,1.52,1.52,0,0,1,.09-.51,2,2,0,0,1,.28-.52,2.68,2.68,0,0,1,.46-.5,2.85,2.85,0,0,1,.63-.41,3.66,3.66,0,0,1-1.33-1.26,3.76,3.76,0,0,1-.15-3.34,3.37,3.37,0,0,1,.89-1.16,4.09,4.09,0,0,1,1.37-.73A5.4,5.4,0,0,1,721,91.7Zm3.56,12.16a1,1,0,0,0-.24-.7,1.48,1.48,0,0,0-.64-.41,5.26,5.26,0,0,0-.94-.21,9.72,9.72,0,0,0-1.11-.07h-1.2a4.45,4.45,0,0,1-1.16-.15,3.18,3.18,0,0,0-1,.74,1.52,1.52,0,0,0-.4,1,1.39,1.39,0,0,0,.19.72,1.77,1.77,0,0,0,.61.57,3.45,3.45,0,0,0,1,.38,6.15,6.15,0,0,0,1.45.15,6.4,6.4,0,0,0,1.45-.15,3.5,3.5,0,0,0,1.09-.43,1.94,1.94,0,0,0,.68-.65A1.53,1.53,0,0,0,724.56,103.86ZM721,97.71a3.21,3.21,0,0,0,1.07-.16,2.23,2.23,0,0,0,.79-.48,2,2,0,0,0,.47-.72,2.52,2.52,0,0,0,.16-.93,2.22,2.22,0,0,0-.64-1.67,3.11,3.11,0,0,0-3.7,0,2.25,2.25,0,0,0-.64,1.67,2.52,2.52,0,0,0,.17.93,2,2,0,0,0,.48.72,2.19,2.19,0,0,0,.78.48A3.11,3.11,0,0,0,721,97.71Z" transform="translate(0 31.74)"/><path class="cls-53" d="M744.74,100a.42.42,0,0,1,.32.15l.86.93a6.82,6.82,0,0,1-2.41,1.79,9,9,0,0,1-6.58,0,6.82,6.82,0,0,1-2.42-1.69,7.61,7.61,0,0,1-1.56-2.6,9.67,9.67,0,0,1-.55-3.34,9.19,9.19,0,0,1,.59-3.34,7.67,7.67,0,0,1,1.66-2.61,7.42,7.42,0,0,1,2.57-1.69,8.62,8.62,0,0,1,3.3-.61,7.37,7.37,0,0,1,5.37,2l-.71,1a1.11,1.11,0,0,1-.18.19.51.51,0,0,1-.3.07.58.58,0,0,1-.31-.11l-.39-.26a5.49,5.49,0,0,0-.53-.34,4.88,4.88,0,0,0-.72-.34,6.42,6.42,0,0,0-1-.26,6.83,6.83,0,0,0-1.27-.11,6.12,6.12,0,0,0-2.38.45,5.38,5.38,0,0,0-1.85,1.26,5.63,5.63,0,0,0-1.21,2,7.53,7.53,0,0,0-.44,2.64,7.78,7.78,0,0,0,.44,2.69,5.78,5.78,0,0,0,1.18,2,5,5,0,0,0,1.78,1.25,5.76,5.76,0,0,0,2.21.42,8.41,8.41,0,0,0,1.29-.08,4.93,4.93,0,0,0,1.07-.27,4.06,4.06,0,0,0,.91-.45,6.11,6.11,0,0,0,.85-.66A.61.61,0,0,1,744.74,100Z" transform="translate(0 31.74)"/><path class="cls-53" d="M753.1,91.71a6.08,6.08,0,0,1,2.27.41,4.83,4.83,0,0,1,1.71,1.19,5.14,5.14,0,0,1,1.08,1.85,7.93,7.93,0,0,1,0,4.85,5.18,5.18,0,0,1-1.08,1.84,4.68,4.68,0,0,1-1.71,1.18,6.46,6.46,0,0,1-4.53,0,4.81,4.81,0,0,1-1.72-1.18A5.35,5.35,0,0,1,748,100a7.93,7.93,0,0,1,0-4.85,5.3,5.3,0,0,1,1.09-1.85,5,5,0,0,1,1.72-1.19A6.06,6.06,0,0,1,753.1,91.71Zm0,10.17a3,3,0,0,0,2.53-1.13,6.38,6.38,0,0,0,0-6.33,2.93,2.93,0,0,0-2.53-1.14,3.4,3.4,0,0,0-1.48.3,2.65,2.65,0,0,0-1.06.84,3.83,3.83,0,0,0-.63,1.35,7.28,7.28,0,0,0-.21,1.82,7.09,7.09,0,0,0,.21,1.81,3.83,3.83,0,0,0,.63,1.35,2.71,2.71,0,0,0,1.06.83A3.4,3.4,0,0,0,753.1,101.88Z" transform="translate(0 31.74)"/><path class="cls-53" d="M761,103.28V91.89h1.2a.52.52,0,0,1,.54.41l.16,1.24a6.36,6.36,0,0,1,1.66-1.33,4.41,4.41,0,0,1,2.13-.5,4.08,4.08,0,0,1,1.65.31,3.25,3.25,0,0,1,1.19.87,3.83,3.83,0,0,1,.73,1.37,5.78,5.78,0,0,1,.25,1.77v7.25h-2V96a3.11,3.11,0,0,0-.59-2,2.2,2.2,0,0,0-1.81-.71,3.41,3.41,0,0,0-1.66.42A5.37,5.37,0,0,0,763,94.89v8.39Z" transform="translate(0 31.74)"/><path class="cls-53" d="M774,103.28V93.6l-1.26-.15a1,1,0,0,1-.39-.17.43.43,0,0,1-.15-.35v-.82H774v-.63a5.36,5.36,0,0,1,.33-1.91,4.07,4.07,0,0,1,1-1.51,4.48,4.48,0,0,1,1.63-1,6.56,6.56,0,0,1,2.27-.35c.29,0,.58,0,.88.05a3.64,3.64,0,0,1,.77.18l-.07,1a.19.19,0,0,1-.13.18,1,1,0,0,1-.33,0h-.56a4.27,4.27,0,0,0-2.91.83,3.19,3.19,0,0,0-.91,2.48v.57h6.91v11.17h-2V93.56H776v9.72Z" transform="translate(0 31.74)"/><path class="cls-53" d="M786.42,103.28V91.89h1.15A.64.64,0,0,1,788,92a.79.79,0,0,1,.17.43l.14,1.78a5.27,5.27,0,0,1,1.44-1.87,3.25,3.25,0,0,1,2-.66,3.33,3.33,0,0,1,.86.1,3,3,0,0,1,.71.3l-.26,1.5a.35.35,0,0,1-.35.28,1.85,1.85,0,0,1-.49-.11,3.08,3.08,0,0,0-.91-.11,2.61,2.61,0,0,0-1.75.61A4.39,4.39,0,0,0,788.43,96v7.25Z" transform="translate(0 31.74)"/><path class="cls-53" d="M795.51,103.28V91.89h1.19a.52.52,0,0,1,.55.41l.14,1.17a6.06,6.06,0,0,1,1.42-1.27,3.33,3.33,0,0,1,1.82-.49,2.71,2.71,0,0,1,1.88.64,1,1,0,1,0,1.66.66,3.6,3.6,0,0,1,.87-.74,3.88,3.88,0,0,1,1-.43,4.67,4.67,0,0,1,1.11-.13,4.28,4.28,0,0,1,1.61.28,3.3,3.3,0,0,1,1.19.84,3.66,3.66,0,0,1,.75,1.36A5.76,5.76,0,0,1,811,96v7.25h-2V96a3.05,3.05,0,0,0-.59-2,2.11,2.11,0,0,0-1.7-.69,2.54,2.54,0,0,0-1,.17,2.24,2.24,0,0,0-1.31,1.36,3.13,3.13,0,0,0-.2,1.19v7.25h-2V96a3.18,3.18,0,0,0-.55-2,2,2,0,0,0-1.61-.67,2.63,2.63,0,0,0-1.39.39,4.56,4.56,0,0,0-1.16,1.09v8.49Z" transform="translate(0 31.74)"/><path class="cls-53" d="M818.55,91.71a5,5,0,0,1,1.89.34,4.27,4.27,0,0,1,1.5,1,4.38,4.38,0,0,1,1,1.6,6,6,0,0,1,.36,2.16,1.38,1.38,0,0,1-.1.63.42.42,0,0,1-.39.16h-7.6a6.46,6.46,0,0,0,.29,1.88,3.73,3.73,0,0,0,.75,1.33,2.92,2.92,0,0,0,1.13.8,3.76,3.76,0,0,0,1.46.26,4.14,4.14,0,0,0,1.3-.17,6.25,6.25,0,0,0,1-.38c.26-.13.48-.26.66-.37a.82.82,0,0,1,.45-.18.47.47,0,0,1,.39.19l.56.74a4.19,4.19,0,0,1-.89.78,5.7,5.7,0,0,1-1.11.54,7.3,7.3,0,0,1-1.22.32,7.76,7.76,0,0,1-1.26.11,5.75,5.75,0,0,1-2.18-.4,5,5,0,0,1-1.73-1.17,5.38,5.38,0,0,1-1.13-1.91,7.7,7.7,0,0,1-.4-2.61,6.71,6.71,0,0,1,.36-2.22,5.39,5.39,0,0,1,1.06-1.8,4.88,4.88,0,0,1,1.68-1.19A5.48,5.48,0,0,1,818.55,91.71Zm0,1.47a3,3,0,0,0-2.28.84,3.88,3.88,0,0,0-1,2.32h6.21a3.94,3.94,0,0,0-.19-1.27,3.1,3.1,0,0,0-.56-1,2.61,2.61,0,0,0-.91-.65A3.17,3.17,0,0,0,818.59,93.18Z" transform="translate(0 31.74)"/><path class="cls-53" d="M833.89,103.28a.51.51,0,0,1-.54-.41l-.18-1.39a6,6,0,0,1-1.68,1.43,4.37,4.37,0,0,1-2.16.53,4.14,4.14,0,0,1-1.78-.38,3.7,3.7,0,0,1-1.36-1.1,5.19,5.19,0,0,1-.87-1.83,9,9,0,0,1-.31-2.51,7.65,7.65,0,0,1,.34-2.34,5.7,5.7,0,0,1,1-1.88,4.4,4.4,0,0,1,1.55-1.26,4.63,4.63,0,0,1,2.07-.45,4.13,4.13,0,0,1,1.8.35,4.39,4.39,0,0,1,1.33,1V86.71h2v16.57ZM830,101.82a3.27,3.27,0,0,0,1.72-.45,5,5,0,0,0,1.36-1.27V94.59a3.17,3.17,0,0,0-1.22-1,3.47,3.47,0,0,0-1.46-.3,2.93,2.93,0,0,0-2.46,1.13,5.32,5.32,0,0,0-.85,3.24,8.1,8.1,0,0,0,.19,1.91,3.76,3.76,0,0,0,.56,1.31,2.18,2.18,0,0,0,.92.74A3,3,0,0,0,830,101.82Z" transform="translate(0 31.74)"/><circle class="cls-58" cx="854.35" cy="127.2" r="12.02"/><polygon class="cls-53" points="861.4 123.05 859.68 121.5 852.19 129.8 849.05 126.22 847.3 127.75 851.81 132.89 852.17 132.58 852.53 132.9 861.4 123.05"/></g></g></g></svg>