<svg xmlns="http://www.w3.org/2000/svg" width="250.239" height="70.987" viewBox="0 0 250.239 70.987"><defs><style>.a{fill:#8b22e2;}.b{fill:#e5e6e6;}.c{fill:#fff;}</style></defs><g transform="translate(0)"><path class="a" d="M68.006,70.987H3a3,3,0,0,1-3-2.981V3A3,3,0,0,1,3,0h65.01a3,3,0,0,1,3,3v65.01A2.992,2.992,0,0,1,68.006,70.987Z" transform="translate(0)"/><path class="b" d="M72.672,18.06H24.236a4.641,4.641,0,0,0-4.626,4.626V71.122a4.641,4.641,0,0,0,4.626,4.626H72.672A4.641,4.641,0,0,0,77.3,71.122V22.686a4.641,4.641,0,0,0-4.626-4.626Zm-6.808,40.5a1.688,1.688,0,1,1-3.376,0V50.643a1.332,1.332,0,0,0-1.328-1.328h-.1a1.332,1.332,0,0,0-1.332,1.328v9.975a4.845,4.845,0,1,1-9.686,0V42.866A1.445,1.445,0,0,0,48.6,41.432h-.063A1.441,1.441,0,0,0,47.1,42.866v13a4.844,4.844,0,1,1-9.688.155V50.674A1.283,1.283,0,0,0,36.136,49.4h-.25a1.283,1.283,0,0,0-1.279,1.279v13a1.783,1.783,0,0,1-3.562,0v-12.9a4.845,4.845,0,1,1,9.69,0v.486h0v4.581A1.452,1.452,0,0,0,42.182,57.3h.088a1.452,1.452,0,0,0,1.438-1.438V42.824h0a4.845,4.845,0,0,1,9.686.046v17.8a1.385,1.385,0,0,0,1.381,1.381h0a1.385,1.385,0,0,0,1.381-1.381V50.808a4.845,4.845,0,1,1,9.69,0ZM35.73,37.419a3.524,3.524,0,1,1-3.524,3.524A3.524,3.524,0,0,1,35.73,37.419ZM33.3,26.968V23.145a1.015,1.015,0,0,1,1.011-1.011H35.85a1.015,1.015,0,0,1,1.011,1.011v3.823a1.015,1.015,0,0,1-1.011,1.011H34.314A1.015,1.015,0,0,1,33.3,26.968ZM45.054,33a3.524,3.524,0,1,1,3.524,3.524A3.524,3.524,0,0,1,45.054,33Zm16.057,4.419a3.524,3.524,0,1,1-3.524,3.524A3.524,3.524,0,0,1,61.111,37.419Zm-.877-10.451V23.145a1.015,1.015,0,0,1,1.011-1.011h1.536a1.015,1.015,0,0,1,1.011,1.011v3.823a1.015,1.015,0,0,1-1.011,1.011H61.245a1.015,1.015,0,0,1-1.011-1.011Z" transform="translate(-12.7 -11.696)"/><path class="c" d="M75.807,28.36H34.581A4.63,4.63,0,0,0,30,32.976V74.17a4.626,4.626,0,0,0,4.581,4.616H75.807a4.63,4.63,0,0,0,4.616-4.616V32.976A4.63,4.63,0,0,0,75.807,28.36Zm-8.844,1.455A1.015,1.015,0,0,1,67.974,28.8H69.51a1.015,1.015,0,0,1,1.011,1.011v3.823A1.015,1.015,0,0,1,69.51,34.65H67.974a1.015,1.015,0,0,1-1.011-1.011Zm.877,14.274a3.524,3.524,0,1,1-3.524,3.524A3.524,3.524,0,0,1,67.84,44.089ZM55.292,36.161a3.524,3.524,0,1,1-3.524,3.524,3.524,3.524,0,0,1,3.524-3.524ZM40.032,29.819a1.015,1.015,0,0,1,1.011-1.011h1.536a1.015,1.015,0,0,1,1.011,1.011v3.82a1.015,1.015,0,0,1-1.011,1.011H41.043a1.015,1.015,0,0,1-1.011-1.011Zm2.428,14.271a3.524,3.524,0,1,1-3.524,3.524A3.524,3.524,0,0,1,42.459,44.089ZM72.593,65.231a1.688,1.688,0,1,1-3.376,0V57.313a1.332,1.332,0,0,0-1.328-1.328h-.1a1.332,1.332,0,0,0-1.332,1.328v9.975a4.845,4.845,0,1,1-9.686,0V49.537A1.445,1.445,0,0,0,55.331,48.1h-.063a1.441,1.441,0,0,0-1.438,1.434v13a4.844,4.844,0,1,1-9.688.155V57.345a1.283,1.283,0,0,0-1.279-1.276h-.25a1.283,1.283,0,0,0-1.279,1.279v13a1.783,1.783,0,0,1-3.562,0v-12.9a4.845,4.845,0,1,1,9.69,0v.486h0v4.581a1.452,1.452,0,0,0,1.448,1.448H49a1.452,1.452,0,0,0,1.438-1.438V49.495h0a4.845,4.845,0,0,1,9.686.046v17.8A1.385,1.385,0,0,0,61.5,68.726h0a1.385,1.385,0,0,0,1.381-1.381V57.479a4.845,4.845,0,1,1,9.69,0Z" transform="translate(-19.429 -18.367)"/><rect class="c" width="3.559" height="8.862" rx="1.34" transform="translate(20.603 3.354)"/><rect class="c" width="3.559" height="8.862" rx="1.34" transform="translate(47.533 3.354)"/><path class="a" d="M242.441,85.94H236V53.84h12.851a12.5,12.5,0,0,1,3.4.458,12.776,12.776,0,0,1,3.055,1.3,13.058,13.058,0,0,1,4.612,4.623,12.82,12.82,0,0,1-6.089,18.291,12.445,12.445,0,0,1-4.982,1.008h-6.409Zm0-25.676V73.114h6.424a6.2,6.2,0,0,0,2.484-.5,6.433,6.433,0,0,0,0-11.843,6.2,6.2,0,0,0-2.484-.5Z" transform="translate(-152.843 -34.869)"/><path class="a" d="M319.9,50.917a3.877,3.877,0,0,1-.324,1.589,4.011,4.011,0,0,1-.884,1.286,4.274,4.274,0,0,1-1.307.874,4.105,4.105,0,0,1-5.374-2.16,4.077,4.077,0,0,1,2.171-5.342,4.119,4.119,0,0,1,3.2,0,4.274,4.274,0,0,1,1.307.874,3.978,3.978,0,0,1,.856,1.3A3.9,3.9,0,0,1,319.9,50.917Zm-1.057,30.49h-6.17V57.446h6.17Z" transform="translate(-201.861 -30.336)"/><path class="a" d="M360.455,79.931l-4.478,4.5a5.99,5.99,0,0,0-.916-1.688,6.089,6.089,0,0,0-1.311-1.265,5.656,5.656,0,0,0-1.579-.786,5.74,5.74,0,0,0-1.744-.268,5.564,5.564,0,0,0-2.364.514,5.8,5.8,0,0,0-1.924,1.445,6.9,6.9,0,0,0-1.29,2.206,8.17,8.17,0,0,0-.469,2.819,5.955,5.955,0,0,0,.469,2.35,6.169,6.169,0,0,0,1.29,1.927,6.015,6.015,0,0,0,4.288,1.762,6.1,6.1,0,0,0,1.723-.247,6.251,6.251,0,0,0,1.554-.7,5.856,5.856,0,0,0,2.227-2.586l4.479,4.5a11.98,11.98,0,0,1-1.959,2.171,12.259,12.259,0,0,1-2.4,1.635,11.98,11.98,0,0,1-2.706,1.018,12.227,12.227,0,0,1-2.921.352,12.061,12.061,0,0,1-4.76-.951,12.3,12.3,0,0,1-6.526-6.483,11.782,11.782,0,0,1-.962-4.746,13.678,13.678,0,0,1,.962-5.159,13.266,13.266,0,0,1,2.632-4.175,12.421,12.421,0,0,1,3.894-2.819,11.209,11.209,0,0,1,4.76-1.032,11.5,11.5,0,0,1,2.942.381,11.791,11.791,0,0,1,2.752,1.11,11.982,11.982,0,0,1,2.421,1.762,11.217,11.217,0,0,1,1.913,2.459Z" transform="translate(-219.018 -48.068)"/><path class="a" d="M412.756,83.343H406.6V49.83h6.156V70.972L421.868,59.4h7.03l-7.949,9.982L428.9,83.332h-7.03l-4.859-8.707-4.253,5.638Z" transform="translate(-263.33 -32.272)"/><path class="a" d="M482.42,83.343a10.381,10.381,0,0,1-4.161-.839,10.832,10.832,0,0,1-5.722-5.719,10.413,10.413,0,0,1-.839-4.165V65.5H468.72V59.4H471.7V49.83h6.089V59.4h9.271v6.1h-9.271v7.118a4.581,4.581,0,0,0,2.819,4.271,4.489,4.489,0,0,0,1.811.352h4.637v6.089Z" transform="translate(-303.562 -32.272)"/><path class="a" d="M532.576,50.917a3.931,3.931,0,0,1-.324,1.589,4.009,4.009,0,0,1-.884,1.286,4.249,4.249,0,0,1-1.311.874,4.1,4.1,0,0,1-5.37-2.16,3.992,3.992,0,0,1,0-3.171,4.059,4.059,0,0,1,2.17-2.171,4.109,4.109,0,0,1,3.2,0,4.248,4.248,0,0,1,1.311.874,4.041,4.041,0,0,1,1.209,2.875Zm-1.057,30.49h-6.152V57.446h6.159Z" transform="translate(-339.595 -30.335)"/><path class="a" d="M585.15,100.117h-6.089V84.895a3.014,3.014,0,0,0-.236-1.187,3.044,3.044,0,0,0-2.819-1.878,2.985,2.985,0,0,0-1.177.233,2.937,2.937,0,0,0-.962.662,3.139,3.139,0,0,0-.648.983,3.013,3.013,0,0,0-.236,1.187v15.222h-6.124V84.895A3.1,3.1,0,0,0,565,82.062a3.062,3.062,0,0,0-1.187-.233,2.921,2.921,0,0,0-2.139.895,3.14,3.14,0,0,0-.648.983,3.076,3.076,0,0,0-.236,1.187v15.222H554.66V76.156h1.476l1.656,1.836a9.867,9.867,0,0,1,2.819-1.667,8.7,8.7,0,0,1,3.189-.6,8.968,8.968,0,0,1,3.281.627,6.657,6.657,0,0,1,2.819,2.171,6.274,6.274,0,0,1,1.258-1.293,7.252,7.252,0,0,1,1.512-.874,7.668,7.668,0,0,1,1.646-.483A10.154,10.154,0,0,1,576,75.733a8.925,8.925,0,0,1,3.569.7,9.106,9.106,0,0,1,5.574,8.46Z" transform="translate(-359.22 -49.046)"/><path class="a" d="M657.8,93.321a3.436,3.436,0,0,0,.7.144c.24.021.479.035.7.035a6.106,6.106,0,0,0,1.727-.247,6.251,6.251,0,0,0,1.554-.7,5.857,5.857,0,0,0,2.227-2.586l4.479,4.5a11.978,11.978,0,0,1-1.959,2.171,12.258,12.258,0,0,1-2.4,1.635,11.982,11.982,0,0,1-2.706,1.018,12.235,12.235,0,0,1-2.925.352A12.068,12.068,0,0,1,647.93,92.08a13.147,13.147,0,0,1-.934-5.1,13.59,13.59,0,0,1,.962-5.194,11.758,11.758,0,0,1,6.512-6.582,12.354,12.354,0,0,1,4.757-.92,12.023,12.023,0,0,1,2.935.352,12.333,12.333,0,0,1,7.1,4.866Zm3.133-12.6a3.373,3.373,0,0,0-.839-.2,7.561,7.561,0,0,0-.863-.046,6.1,6.1,0,0,0-2.361.458,5.637,5.637,0,0,0-1.924,1.311,6.113,6.113,0,0,0-1.286,2.047,7.339,7.339,0,0,0-.472,2.7,5.982,5.982,0,0,0,.035.761,8.178,8.178,0,0,0,.109.86c.053.292.116.571.19.842a3.231,3.231,0,0,0,.293.7Z" transform="translate(-419.019 -48.113)"/></g></svg>