<svg xmlns="http://www.w3.org/2000/svg" viewBox="0 0 679.26 172.25"><defs><style>.cls-1{fill:#e6e7e7;}.cls-2{fill:#fff;}</style></defs><g id="Layer_2" data-name="Layer 2"><g id="Layer_1-2" data-name="Layer 1"><path class="cls-1" d="M150.59,8.54H13.13A13.17,13.17,0,0,0,0,21.67V159.12a13.16,13.16,0,0,0,13.13,13.13H150.59a13.16,13.16,0,0,0,13.13-13.13V21.67A13.17,13.17,0,0,0,150.59,8.54ZM131.27,123.46a4.81,4.81,0,0,1-4.79,4.79,4.79,4.79,0,0,1-4.8-4.79V101a3.77,3.77,0,0,0-3.76-3.77h-.3a3.78,3.78,0,0,0-3.77,3.77v28.31a13.75,13.75,0,1,1-27.49,0V78.94a4.09,4.09,0,0,0-4.08-4.07H82.1A4.08,4.08,0,0,0,78,78.94v36.9a13.75,13.75,0,0,1-27.49.44V101.1a3.65,3.65,0,0,0-3.63-3.64h-.71a3.64,3.64,0,0,0-3.63,3.64V138a5.06,5.06,0,0,1-10.11,0V101.41a13.75,13.75,0,0,1,27.5,0v1.38h0v13a4.12,4.12,0,0,0,4.11,4.1h.25a4.12,4.12,0,0,0,4.11-4.1v-37h0a13.75,13.75,0,0,1,27.49.13v50.51a3.94,3.94,0,0,0,3.92,3.92h0a3.93,3.93,0,0,0,3.92-3.92v-28a13.75,13.75,0,0,1,27.5,0Zm-85.52-60a10,10,0,1,1-10,10A10,10,0,0,1,45.75,63.46ZM38.86,33.82V23a2.88,2.88,0,0,1,2.87-2.87h4.36A2.88,2.88,0,0,1,49,23V33.82a2.88,2.88,0,0,1-2.87,2.87H41.73A2.88,2.88,0,0,1,38.86,33.82ZM72.21,50.94a10,10,0,1,1,10,10A10,10,0,0,1,72.21,50.94Zm45.57,12.52a10,10,0,1,1-10,10A10,10,0,0,1,117.78,63.46Zm-2.49-29.64V23a2.88,2.88,0,0,1,2.87-2.87h4.36A2.88,2.88,0,0,1,125.39,23V33.82a2.88,2.88,0,0,1-2.87,2.87h-4.36A2.88,2.88,0,0,1,115.29,33.82Z"/><path class="cls-2" d="M140.35,18.84H23.43a13.13,13.13,0,0,0-13.09,13.1V148.85A13.14,13.14,0,0,0,23.43,162H140.35a13.14,13.14,0,0,0,13.09-13.1V31.94A13.13,13.13,0,0,0,140.35,18.84ZM115.29,23a2.88,2.88,0,0,1,2.87-2.87h4.36A2.88,2.88,0,0,1,125.39,23V33.82a2.88,2.88,0,0,1-2.87,2.87h-4.36a2.88,2.88,0,0,1-2.87-2.87Zm2.49,40.49a10,10,0,1,1-10,10A10,10,0,0,1,117.78,63.46ZM82.17,41a10,10,0,1,1-10,10A10,10,0,0,1,82.17,41ZM38.86,23a2.88,2.88,0,0,1,2.87-2.87h4.36A2.88,2.88,0,0,1,49,23V33.82a2.88,2.88,0,0,1-2.87,2.87H41.73a2.88,2.88,0,0,1-2.87-2.87Zm6.89,40.49a10,10,0,1,1-10,10A10,10,0,0,1,45.75,63.46Zm85.52,60a4.81,4.81,0,0,1-4.79,4.79,4.79,4.79,0,0,1-4.8-4.79V101a3.77,3.77,0,0,0-3.76-3.77h-.3a3.78,3.78,0,0,0-3.77,3.77v28.31a13.75,13.75,0,1,1-27.49,0V78.94a4.09,4.09,0,0,0-4.08-4.07H82.1A4.08,4.08,0,0,0,78,78.94v36.9a13.75,13.75,0,0,1-27.49.44V101.1a3.65,3.65,0,0,0-3.63-3.64h-.71a3.64,3.64,0,0,0-3.63,3.64V138a5.06,5.06,0,0,1-10.11,0V101.41a13.75,13.75,0,0,1,27.5,0v1.38h0v13a4.12,4.12,0,0,0,4.11,4.1h.25a4.12,4.12,0,0,0,4.11-4.1v-37h0a13.75,13.75,0,0,1,27.49.13v50.51a3.94,3.94,0,0,0,3.92,3.92h0a3.93,3.93,0,0,0,3.92-3.92v-28a13.75,13.75,0,0,1,27.5,0Z"/><rect class="cls-2" x="38.86" width="10.1" height="25.15" rx="1.34"/><rect class="cls-2" x="115.29" width="10.1" height="25.15" rx="1.34"/><path class="cls-2" d="M209.6,143.68H190.81V49.83h37.57a36.43,36.43,0,0,1,10,1.34A37.44,37.44,0,0,1,247.26,55a38,38,0,0,1,13.49,13.52,37.9,37.9,0,0,1,3.79,9,37.56,37.56,0,0,1-1.6,24.51,37.67,37.67,0,0,1-20,20,36.3,36.3,0,0,1-14.56,3H209.6Zm0-75.07v37.57h18.78a18.13,18.13,0,0,0,7.27-1.47,18.91,18.91,0,0,0,10-10,18.84,18.84,0,0,0,0-14.59,18.92,18.92,0,0,0-4-6,19.26,19.26,0,0,0-5.95-4,18.13,18.13,0,0,0-7.27-1.47Z"/><path class="cls-2" d="M292.71,54.54a11.48,11.48,0,0,1-.95,4.65A11.91,11.91,0,0,1,289.17,63a12.34,12.34,0,0,1-3.83,2.55,12,12,0,0,1-9.36,0,12,12,0,0,1-6.34-6.31,11.31,11.31,0,0,1-.95-4.65,11.44,11.44,0,0,1,.95-4.62A11.9,11.9,0,0,1,276,43.58a12,12,0,0,1,9.36,0,12.34,12.34,0,0,1,3.83,2.55,11.82,11.82,0,0,1,2.59,3.79A11.61,11.61,0,0,1,292.71,54.54Zm-3.08,89.14h-18V73.59h18Z"/><path class="cls-2" d="M361.16,87.53l-13.09,13.15a17.73,17.73,0,0,0-2.69-4.94,18.29,18.29,0,0,0-3.82-3.7A16.79,16.79,0,0,0,331.83,89a16.23,16.23,0,0,0-6.9,1.5,17,17,0,0,0-5.63,4.22,20.25,20.25,0,0,0-3.76,6.45,23.64,23.64,0,0,0-1.38,8.25,17.21,17.21,0,0,0,1.38,6.87,17.93,17.93,0,0,0,3.76,5.63,17.83,17.83,0,0,0,17.57,4.45,18.32,18.32,0,0,0,4.55-2.06,17.18,17.18,0,0,0,3.8-3.27,17.43,17.43,0,0,0,2.72-4.29L361,129.87a35,35,0,0,1-5.73,6.35,36,36,0,0,1-7,4.78,35.17,35.17,0,0,1-7.92,3,35.79,35.79,0,0,1-8.55,1,34.89,34.89,0,0,1-13.9-2.78,35.81,35.81,0,0,1-19.08-19A34.37,34.37,0,0,1,296,109.39a40,40,0,0,1,2.82-15.06,38.8,38.8,0,0,1,7.69-12.2,36.33,36.33,0,0,1,11.39-8.22,32.81,32.81,0,0,1,13.9-3A33.67,33.67,0,0,1,340.44,72a35.33,35.33,0,0,1,8.05,3.24,34.67,34.67,0,0,1,7.07,5.21A32.39,32.39,0,0,1,361.16,87.53Z"/><path class="cls-2" d="M384.51,143.68h-18v-98h18v61.79l26.64-33.77H431.7l-23.23,29.19,23.23,40.77H411.15L397,118.22l-12.44,16.5Z"/><path class="cls-2" d="M470.57,143.68a30.4,30.4,0,0,1-12.18-2.45,31.65,31.65,0,0,1-16.72-16.72,30.4,30.4,0,0,1-2.45-12.18V91.52h-8.71V73.72h8.71v-28H457v28h27.1v17.8H457v20.81a13.44,13.44,0,0,0,3.93,9.56,13.81,13.81,0,0,0,4.32,2.91,13.12,13.12,0,0,0,5.3,1.08h13.55v17.8Z"/><path class="cls-2" d="M511.86,54.54a11.48,11.48,0,0,1-.95,4.65A12.08,12.08,0,0,1,508.32,63a12.46,12.46,0,0,1-3.83,2.55,12,12,0,0,1-9.36,0A11.93,11.93,0,0,1,491.34,63a12.17,12.17,0,0,1-2.56-3.76,11.48,11.48,0,0,1-.95-4.65,11.61,11.61,0,0,1,.95-4.62,12.07,12.07,0,0,1,2.56-3.79,11.93,11.93,0,0,1,3.79-2.55,12,12,0,0,1,9.36,0,12.46,12.46,0,0,1,3.83,2.55,12,12,0,0,1,2.59,3.79A11.61,11.61,0,0,1,511.86,54.54Zm-3.08,89.14h-18V73.59h18Z"/><path class="cls-2" d="M608.19,143.68H590.38V99.18a9,9,0,0,0-.68-3.47,9.11,9.11,0,0,0-1.93-2.88,8.94,8.94,0,0,0-6.35-2.62,8.62,8.62,0,0,0-6.25,2.62,9.2,9.2,0,0,0-1.9,2.88,8.84,8.84,0,0,0-.69,3.47v44.5H554.71V99.18a8.95,8.95,0,0,0-9-9,8.59,8.59,0,0,0-3.44.69,8.69,8.69,0,0,0-2.82,1.93,9.35,9.35,0,0,0-1.89,2.88,8.84,8.84,0,0,0-.69,3.47v44.5H519V73.59h4.32L528.2,79a28.81,28.81,0,0,1,8.22-4.87,25.57,25.57,0,0,1,9.33-1.74,26.08,26.08,0,0,1,9.58,1.83,19.53,19.53,0,0,1,8.22,6.35,17.89,17.89,0,0,1,3.73-3.79,21.15,21.15,0,0,1,4.42-2.56,21.74,21.74,0,0,1,4.81-1.4,28.42,28.42,0,0,1,4.91-.43,26.1,26.1,0,0,1,10.44,2.1A26.57,26.57,0,0,1,606.09,88.7a26.4,26.4,0,0,1,2.1,10.48Z"/><path class="cls-2" d="M645.74,126.54a9.77,9.77,0,0,0,2.1.42,20.89,20.89,0,0,0,2.09.1,17.55,17.55,0,0,0,5-.72,18.32,18.32,0,0,0,4.55-2.06,17.06,17.06,0,0,0,6.51-7.56l13.09,13.15a34.58,34.58,0,0,1-5.72,6.35,36,36,0,0,1-7,4.78,35.17,35.17,0,0,1-7.92,3A36.58,36.58,0,0,1,636,142.24a35.1,35.1,0,0,1-11.38-7.65,35.94,35.94,0,0,1-7.7-11.69A38.53,38.53,0,0,1,614.13,108a39.8,39.8,0,0,1,2.81-15.18A34.34,34.34,0,0,1,636,73.59a36.17,36.17,0,0,1,13.91-2.69,35.18,35.18,0,0,1,8.58,1,36.11,36.11,0,0,1,20.75,14.2Zm9.17-36.85a10.23,10.23,0,0,0-2.46-.59,22.58,22.58,0,0,0-2.52-.13,17.75,17.75,0,0,0-6.9,1.34,16.32,16.32,0,0,0-5.63,3.83,18,18,0,0,0-3.76,6,21.32,21.32,0,0,0-1.38,7.88c0,.66,0,1.4.1,2.23a22.31,22.31,0,0,0,.33,2.52c.15.85.33,1.67.55,2.45a9.12,9.12,0,0,0,.85,2.1Z"/></g></g></svg>