<svg xmlns="http://www.w3.org/2000/svg" xmlns:xlink="http://www.w3.org/1999/xlink" width="144" height="145" viewBox="0 0 144 145"><defs><style>.a{fill:#fff;}.b{clip-path:url(#a);}.c{fill:#d6b3f5;}.d{stroke:#000;stroke-width:2px;}</style><clipPath id="a"><circle class="a" cx="69.5" cy="69.5" r="69.5" transform="translate(826 1022)"/></clipPath></defs><circle class="c" cx="18.5" cy="18.5" r="18.5" transform="translate(6 63)"/><circle class="c" cx="18.5" cy="18.5" r="18.5" transform="translate(65)"/><circle class="c" cx="18.5" cy="18.5" r="18.5" transform="translate(107 56)"/><circle class="c" cx="18.5" cy="18.5" r="18.5" transform="translate(65 108)"/><g transform="translate(6.774 2.774)"><path class="d" d="M166.142,88H94.011A6.011,6.011,0,0,0,88,94.011v72.131a6.011,6.011,0,0,0,6.011,6.011h72.131a6.011,6.011,0,0,0,6.011-6.011V94.011A6.011,6.011,0,0,0,166.142,88Zm2,78.142a2,2,0,0,1-2,2H94.011a2,2,0,0,1-2-2V94.011a2,2,0,0,1,2-2h72.131a2,2,0,0,1,2,2Z" transform="translate(-59.964 -59.964)"/><path class="d" d="M190.011,24.029h24.044a6.011,6.011,0,0,0,6.011-6.011V14.011A6.011,6.011,0,0,0,214.055,8H190.011A6.011,6.011,0,0,0,184,14.011v4.007A6.011,6.011,0,0,0,190.011,24.029Zm-2-10.018a2,2,0,0,1,2-2h24.044a2,2,0,0,1,2,2v4.007a2,2,0,0,1-2,2H190.011a2,2,0,0,1-2-2Z" transform="translate(-131.92)"/><path class="d" d="M214.055,440H190.011A6.011,6.011,0,0,0,184,446.011v4.007a6.011,6.011,0,0,0,6.011,6.011h24.044a6.011,6.011,0,0,0,6.011-6.011v-4.007A6.011,6.011,0,0,0,214.055,440Zm2,10.018a2,2,0,0,1-2,2H190.011a2,2,0,0,1-2-2v-4.007a2,2,0,0,1,2-2h24.044a2,2,0,0,1,2,2Z" transform="translate(-131.92 -323.803)"/><path class="d" d="M450.018,184h-4.007A6.011,6.011,0,0,0,440,190.011v24.044a6.011,6.011,0,0,0,6.011,6.011h4.007a6.011,6.011,0,0,0,6.011-6.011V190.011A6.011,6.011,0,0,0,450.018,184Zm2,30.055a2,2,0,0,1-2,2h-4.007a2,2,0,0,1-2-2V190.011a2,2,0,0,1,2-2h4.007a2,2,0,0,1,2,2Z" transform="translate(-323.803 -131.92)"/><path class="d" d="M18.018,184H14.011A6.011,6.011,0,0,0,8,190.011v24.044a6.011,6.011,0,0,0,6.011,6.011h4.007a6.011,6.011,0,0,0,6.011-6.011V190.011A6.011,6.011,0,0,0,18.018,184Zm2,30.055a2,2,0,0,1-2,2H14.011a2,2,0,0,1-2-2V190.011a2,2,0,0,1,2-2h4.007a2,2,0,0,1,2,2Z" transform="translate(0 -131.92)"/><path class="d" d="M136.029,376H122a2,2,0,1,0,0,4.007h14.026a2,2,0,1,0,0-4.007Z" transform="translate(-83.949 -275.832)"/><path class="d" d="M204.007,376h-2a2,2,0,1,0,0,4.007h2a2,2,0,1,0,0-4.007Z" transform="translate(-143.912 -275.832)"/></g></svg>